<?xml version="1.0" standalone="no"?>
<!DOCTYPE svg PUBLIC "-//W3C//DTD SVG 1.1//EN" "http://www.w3.org/Graphics/SVG/1.1/DTD/svg11.dtd" >
<!--
2013-9-30: Created.
-->
<svg>
<metadata>
Created by iconfont
</metadata>
<defs>

<font id="iconfont" horiz-adv-x="1024" >
  <font-face
    font-family="iconfont"
    font-weight="500"
    font-stretch="normal"
    units-per-em="1024"
    ascent="896"
    descent="-128"
  />
    <missing-glyph />
    
    <glyph glyph-name="zujuanjilu" unicode="&#58889;" d="M752.11459294 654.6202106000001h-79.09215105A29.76410181 29.76410181 0 0 1 652.44106511 645.54095253a24.72869169 24.72869169 0 0 1-6.78573213-19.95194993v-40.83510622h-267.29060185V625.2354892999999a24.64246931 24.64246931 0 0 1-7.0185339 20.4692866 29.77272442 29.77272442 0 0 1-21.4177376 8.76885592h-1.63823246v0.18106797H271.87098196C235.79537291 654.67194439 206.57447438 628.00324011 206.4796294 595.04889577v-457.07555194c0.24142374-32.88536654 29.42783308-59.44198125 65.39135256-59.49371443h480.26085557c35.98938609 0 65.2275292 26.5738593 65.39135258 59.49371443V595.04889577c-0.21555715 32.90261114-29.41921048 59.51095903-65.40859717 59.57131483z m-435.01114347-283.67292875a26.87563883 26.87563883 0 1 0-15.97708037-30.17797152 26.88426143 26.88426143 0 0 0 15.97708037 30.20383812z m28.19484714-160.20191564a26.88426143 26.88426143 0 1 0 3.35406648 33.98039512 26.92737263 26.92737263 0 0 0-3.35406648-33.98039512z m2.87121839 232.80149207a26.87563883 26.87563883 0 1 0 3.36268847 33.98039509 26.91012803 26.91012803 0 0 0-3.37131048-33.98039509z m57.67441462-83.63609167c3.59548963 8.46707638 10.20877641 13.4938645 17.2445549 13.0886168h267.29060186c10.2346436-0.60355967 18.31371747-12.45056854 18.31371747-26.85839424s-8.07907387-26.24621257-18.31371747-26.84977224h-267.29060186c-7.0099113-0.41386912-13.62319868 4.61291842-17.2445549 13.08861739a36.56707855 36.56707855 0 0 0-0.00862259 27.54817689z m283.3797718-157.0030511h-267.29060244c-7.0185339-0.41386912-13.62319868 4.61291842-17.24455489 13.08861738a36.48085616 36.48085616 0 0 0 0 27.53093229c3.59548963 8.46707638 10.20015442 13.4938645 17.24455489 13.0886168h267.29060244c10.2346436-0.60355967 18.31371747-12.45056854 18.31371687-26.85839423s-8.07907387-26.24621257-18.31371687-26.84977224z m2.87984039 232.80149206h-267.29060186c-7.0099113-0.41386912-13.62319868 4.61291842-17.2445549 13.08861737a36.56707855 36.56707855 0 0 0 0 27.53093231c3.59548963 8.46707638 10.20877641 13.4938645 17.2445549 13.08861678h267.29060186c10.2346436-0.60355967 18.31371747-12.45056854 18.31371746-26.85839423s-8.07907387-26.24621257-18.31371746-26.84977223zM437.6170218 602.22263043h144.38865864a34.09248528 34.09248528 0 0 1 23.05597004 8.53605476A28.4535155 28.4535155 0 0 1 614.71860162 631.7453085V659.96602285C614.42544408 676.30523854 599.90552878 689.42834512 582.04016963 689.51456811h-144.42314783a34.0407515 34.0407515 0 0 1-23.15081502-8.51018819A28.37591511 28.37591511 0 0 1 404.79201165 659.96602285V631.7453085c0.31902413-16.38232748 14.91653979-29.47094429 32.76465437-29.48818886z"  horiz-adv-x="1024" />

    
    <glyph glyph-name="goumaijilu" unicode="&#58886;" d="M325.57198732 670.42534743H698.46734694c27.10423035 0 49.91608149-21.96307607 52.85041967-51.02353166L798.10550431 161.16006097000002a60.19839007 60.19839007 0 0 0-13.24089725-44.45966744c-10.04788511-12.12536395-24.48515138-19.05298838-39.60952243-19.06107261h-466.42233346c-15.16478834 0-29.5939715 6.97612598-39.60952243 19.10149049A60.1660559 60.1660559 0 0 0 225.90149577 161.16006097000002L272.72156765 619.40181577C275.69632368 648.42993719 298.46775754 670.42534743 325.57198732 670.42534743z m53.41627029-171.85682518c0-79.08970759 59.54362063-143.20863188 133.0152427-143.20863189s133.00715902 64.11892486 133.00715902 143.20863188a29.44038373 29.44038373 0 0 1-7.7359822 20.20894009 25.30159285 25.30159285 0 0 1-37.72604922 0 29.44038373 29.44038373 0 0 1-7.7359822-20.20894009c0.19400562-47.23233418-35.5273162-85.68590543-79.8091454-85.9284126-44.28182918 0.23442349-80.02740207 38.69607843-79.80914595 85.9284126 0 10.20955655-5.02798439 19.65925686-13.28131511 24.81657852a24.92166471 24.92166471 0 0 1-26.59496496 0c-8.30183226-5.14923798-13.34598404-14.63127247-13.32981667-24.81657852z"  horiz-adv-x="1024" />

    
    <glyph glyph-name="banjiguanli" unicode="&#58887;" d="M430.17880548 416.22822597H276.73377418A52.28269836 52.28269836 0 0 0 225.57465256 467.06401591V619.5471363500001A52.29078147 52.29078147 0 0 0 276.73377418 670.4071762h153.4450313a52.29078147 52.29078147 0 0 0 51.15912164-50.8438736v-152.49928669a52.28269836 52.28269836 0 0 0-51.15912164-50.83578994z m0-315.08651606H276.73377418A52.29078147 52.29078147 0 0 0 225.57465256 151.98558352999999V304.46062028999995a52.29078147 52.29078147 0 0 0 51.15912162 50.84387361h153.4450313a52.29078147 52.29078147 0 0 0 51.15912164-50.84387361v-149.11238975c0.75982883-28.94624966-22.04312299-53.11527698-51.15912164-54.23077055z m243.70301084-3.56472958c-71.33500534-0.42033087-129.80141772 56.15459283-131.28065918 127.02076743 0 70.15484508 57.22966969 127.02076743 127.82909614 127.02076744s127.81292932-56.86592179 127.81292932-127.02076744a123.35095498 123.35095498 0 0 0-35.26738016-89.49815016 124.99994542 124.99994542 0 0 0-89.06973617-37.48220053z m73.3558268 318.65124564H593.80069497a52.29078147 52.29078147 0 0 0-51.16720477 50.83578994V619.5471363500001A52.29886516 52.29886516 0 0 0 593.80069497 670.4071762h150.03388498c29.09983239 0.75174572 53.45477492-21.91379019 54.57026851-50.8438736v-152.49928669a52.29078147 52.29078147 0 0 0-51.16720533-50.83578994z"  horiz-adv-x="1024" />

    
    <glyph glyph-name="jigouxinxi" unicode="&#58888;" d="M758.28142973 97.57465256H265.71762429c-9.91853162 0-18.02634483 7.83297244-18.02634428 17.39582698v57.94297677c0 9.57093823 8.08356273 17.40391011 18.02634428 17.4039101H758.28142973c9.91853162 0 18.02634483-7.83297244 18.02634482-17.4039101v-57.94297677c0-9.56285455-8.08356273-17.39582698-18.02634482-17.39582698M779.7352046 448.71652953H244.26384942c-10.32270968 0-18.67302949 8.08356273-18.68919686 18.06676269v2.2068122c0 9.91044793 6.31326219 17.57366524 18.68919686 25.34196876L504.457563 667.99933314a12.36785097 12.36785097 0 0 0 7.50963011 2.4250683c4.74505153 0 7.27520663-2.23106325 7.27520606-2.23106325l260.52514017-173.86126501c16.82189379-10.96131121 18.65686269-17.86467339 18.6568621-23.52316725v-4.04178107c0-9.94278211-8.38265456-18.00209378-18.68919684-18.03442797m-219.69506481-60.10937221v-255.64266768a5.8201653 5.8201653 0 0 0-1.79455101-4.2196199 6.24859386 6.24859386 0 0 0-4.36512397-1.75413316H470.14283969a6.0869224 6.0869224 0 0 0-6.1920086 5.97375306V388.62332468a6.12734025 6.12734025 0 0 0 6.1920086 5.97375305h83.71337463a6.11117346 6.11117346 0 0 0 6.1515913-5.99800355m-168.42911097 0v-255.61841718a5.86866628 5.86866628 0 0 0-1.81071783-4.21961989 6.31326219 6.31326219 0 0 0-4.38129133-1.75413316H301.68139455a6.0869224 6.0869224 0 0 0-6.15967444 5.97375305V388.62332468a6.11117346 6.11117346 0 0 0 6.15967444 5.97375305h83.73762512a6.13542395 6.13542395 0 0 0 6.19200917-5.99800355m336.9228903 0v-255.61841718a5.86058316 5.86058316 0 0 0-1.81880152-4.22770357 6.30517907 6.30517907 0 0 0-4.39745816-1.74604948H638.6447027a6.28092803 6.28092803 0 0 0-4.3732071 1.75413316 5.8444158 5.8444158 0 0 0-1.81880207 4.21961989V388.62332468a6.11925713 6.11925713 0 0 0 6.19200917 5.97375305h83.67295677a6.13542395 6.13542395 0 0 0 6.19200918-5.99800355"  horiz-adv-x="1024" />

    
    <glyph glyph-name="zujuan" unicode="&#58890;" d="M757.30881819 670.42534744H255.67342301v-31.00815972h485.00771455a26.83709342 26.83709342 0 0 0 26.6754242-26.82901028V124.54916466999998h31.03241022V629.07035623C798.42130559 651.83338528 779.91826116 670.42534744 757.30881819 670.42534744zM225.57869441 605.96782193m38.40452762 0l428.67406784 0q38.40452763 0 38.40452764-38.40452706l0-431.58411468q0-38.40452763-38.40452764-38.40452763l-428.67406784 0q-38.40452763 0-38.40452762 38.40452763l0 431.58411468q0 38.40452763 38.40452762 38.40452706Z"  horiz-adv-x="1024" />

    
    <glyph glyph-name="shangkejilu" unicode="&#58891;" d="M268.98497106 652.52376322C254.89681414 652.52376322 243.47623678 639.60267247 243.47623678 623.6578184499999v-394.5138731c0-15.91454019 11.42057736-28.86594476 25.50873428-28.86594424H755.01502894c14.08815745 0 25.50873429 12.92866923 25.50873428 28.86594424V623.88516946C780.41766644 639.75423943 769.00466754 652.52376322 755.01502894 652.52376322z m392.93757568-136.12994532L511.63623894 338.23432915a15.98274523 15.98274523 0 0 0-23.31101204-0.97002899L384.03193988 441.17866921a18.38508309 18.38508309 0 0 0-5.44883543 18.5821203 19.19596665 19.19596665 0 0 0 14.39886987 13.41368397 19.87044012 19.87044012 0 0 0 19.0292433-5.92627174l84.69566702-85.05942809 132.90156749 159.65315143a19.65824657 19.65824657 0 0 0 13.42884035 6.94934937 19.87044012 19.87044012 0 0 0 14.48981028-4.54701148l2.09162495-1.76575615a18.40781794 18.40781794 0 0 0 2.27350574-26.09226735z m51.78288297-358.53185559H322.10164355v-42.38572553h391.55073751l0.06062657 42.38572552z"  horiz-adv-x="1024" />

    
    <glyph glyph-name="kechengguanli" unicode="&#58892;" d="M757.32036359 97.57465256H301.75427247C259.88943238 97.57465256 225.57465256 129.32693917999995 225.57465256 168.60503447999997v56.63353349c0 9.16677528 8.29374914 16.36924161 18.85898276 16.36924106s18.85089908-7.20246633 18.85089906-16.36924106v-56.63353349c0-20.95262897 17.34735397-38.29998293 38.46973808-38.29998293h455.56609113c10.55715049 0 18.85089908-7.20246633 18.85089907-16.36115738s-8.29374914-16.36924161-18.85089907-16.36924161zM681.1407437 670.42534744H342.8592563C277.99664257 670.42534744 225.57465256 621.32570685 225.57465256 560.4402125700001v-341.74934147h441.61383919c72.40458975 0 131.23685569 54.96831639 131.23685569 122.75718519V560.4402125700001C798.42534744 621.32570685 746.00335743 670.42534744 681.1407437 670.42534744zM561.21281049 515.27727354H327.42770973c-10.56523361 0-18.85898275 11.09066638-18.85898275 25.19650665s8.2694981 25.20458977 18.85898276 25.20458975h233.78510076c10.55715049 0 18.85898275-11.09066638 18.85898274-25.20458975s-8.30183226-25.19650607-18.85898275-25.19650664z"  horiz-adv-x="1024" />

    
    <glyph glyph-name="xueshengliebiao" unicode="&#58893;" d="M788.41888937 573.97924552c-62.35771789 28.52313774-183.15855098 81.41338084-238.68727099 105.80635398-31.04089949 17.08973962-48.93252863 9.48471938-82.88782334-6.09608734-57.27045941-23.87562512-158.43792336-67.25528164-224.56366156-94.89030508-49.14809057-20.69393299-46.28542973-35.80050408 0-60.19347721 69.42814489-35.84361647 202.3349285-91.69999036 232.28939635-103.6421139a85.25038073 85.25038073 0 0 1 80.25796963 2.40566978c28.86803622 14.65820263 64.9961942 33.18789497 198.36859144 93.42448456v-89.7685562l-24.91894377-29.75615112L769.52705336 347.90665106999995l45.16450831 43.4055243L791.08323347 421.02521411V528.5301951199999c15.45147016 10.56252842 52.26942571 19.31433726-2.63847691 45.42318261zM551.86136925 356.97749179000004a178.68348789 178.68348789 0 0 0-37.72331501-4.21638878c-23.9014923-0.10346937-41.72414187 4.68200242-52.87299851 7.76022459-53.88182796 14.87376397-112.37667814 54.18361405-123.20650288 61.54720575q0.3104087-148.39274356 0.61219539-296.77686511a332.51701162 332.51701162 0 0 1 345.76112873 3.36276425q0.75015515 150.71218856 1.5089323 301.43299975c-27.03145005-22.24597768-61.64205252-45.28522287-104.23706411-62.49567764a375.82596402 375.82596402 0 0 0-29.84237591-10.61426281z"  horiz-adv-x="1024" />

    
    <glyph glyph-name="xiaoqushezhi" unicode="&#58894;" d="M250.0576486 296.63702228h87.29399813V122.16111854999997H250.0576486z m436.53034768-43.78495911v43.78495911H773.83888145V122.16111854999997H686.58799629zM337.31715695 427.46592662L490.15925572 514.8547721499999l21.80625449-38.11998848L359.09754365 389.33731556z m327.48182944-38.14585566L512 476.70891589l21.80625448 38.12861166L686.60524089 427.39694706zM490.15925572 689.45139102h43.64699876v-212.76834233H490.15925572zM533.82349969 689.5203706h109.11749723v-87.29399813H533.82349969zM602.9068177 427.39694706v43.82807091h-73.79119299v10.57116175h-35.25732467v-10.57116175H424.62839968V427.39694706H337.35164673v-305.47725822h349.21048177V427.39694706z m-90.97579729 14.57199277a57.77062311 57.77062311 0 1 0-57.7706231-57.77062251 57.8309801 57.8309801 0 0 0 57.77062311 57.77062251z m87.36297774-319.7129739H424.70600186v131.14793623h174.58799628zM206.4796294 122.12662816h611.0407412v-43.64699876H206.4796294z"  horiz-adv-x="1024" />

    
    <glyph glyph-name="laoshiguanli" unicode="&#58895;" d="M378.06639644 557.8296822c0-72.12679917 58.96031705-130.70772912 132.06145409-131.68206581C585.0483238 425.15603452 646.9144069 486.03053572 645.89695782 559.6576416099999 644.89675333 631.5430128400001 585.33286469 689.5203706 511.99892233 689.5203706 438.04416315 689.5203706 378.06639644 630.5600535599999 378.06639644 557.8296822zM518.93137228 404.57424478q-3.44898008 0.06897958-6.89796016 0.06035759C343.24894116 404.63460237 206.4796294 293.49121389000004 206.4796294 156.30802405999998c0-103.77119328 611.03858585-103.77119328 611.03858585 0 0 135.29487284-133.08752515 245.2742305-298.58684297 248.26622072z m43.48301847-226.66698194l-48.69960099-54.157612a2.31943904 2.31943904 0 0 0-3.31964352 0L461.70416787 176.88981377000005a1.65551047 1.65551047 0 0 0-0.42250007 1.43132714l31.90306724 161.56747951a2.04352073 2.04352073 0 0 0 2.07801051 1.5089287h33.62755729a2.04352073 2.04352073 0 0 0 2.07801053-1.50892871l31.90306724-160.55865304a1.65551047 1.65551047 0 0 0-0.45698986-1.42270453z"  horiz-adv-x="1024" />

    
    <glyph glyph-name="chilun6" unicode="&#59223;" d="M660.48 701.44a25.6 25.6 0 0 0 25.6-25.6v-21.46304l1.3312-0.38912c9.09312-2.816 17.88928-6.54336 26.24512-11.1104l1.08544-0.60416 14.85824 14.848a25.6 25.6 0 0 0 34.84672 1.24928l1.34144-1.24928 19.3536-19.29216a25.6 25.6 0 0 0 0-36.1984l-14.85824-14.85824 0.62464-1.09568c4.56704-8.36608 8.28416-17.17248 11.08992-26.27584l0.37888-1.32096H803.84a25.6 25.6 0 0 0 25.5488-23.92064L829.44 532.48v-30.72a25.6 25.6 0 0 0-25.6-25.6h-21.47328l-0.36864-1.32096c-2.80576-9.1136-6.52288-17.90976-11.08992-26.27584l-0.62464-1.08544 14.85824-14.86848a25.6 25.6 0 0 0 1.24928-34.85696l-1.24928-1.34144-19.31264-19.31264a25.6 25.6 0 0 0-36.1984 0L714.752 391.95648l-1.08544-0.62464c-8.36608-4.56704-17.17248-8.28416-26.27584-11.08992l-1.32096-0.36864v-6.62528a25.61024 25.61024 0 0 0 20.4288-23.40864L706.56 348.16v-51.2a25.6 25.6 0 0 0-23.92064-25.5488L680.96 271.36h-32.16384l-0.5632-2.2016a203.50976 203.50976 0 0 0-20.18304-48.61952l-1.15712-1.92512 22.784-22.74304a25.6 25.6 0 0 0 1.24928-34.85696l-1.23904-1.3312-36.17792-36.2496a25.6 25.6 0 0 0-34.85696-1.2288l-1.34144 1.2288-22.80448 22.80448-1.92512-1.15712a203.50976 203.50976 0 0 0-48.61952-20.19328l-2.2016-0.55296V92.16a25.6 25.6 0 0 0-23.92064-25.5488L476.16 66.56h-51.2a25.6 25.6 0 0 0-25.5488 23.92064L399.36 92.16v32.16384l-2.2016 0.5632a203.50976 203.50976 0 0 0-48.61952 20.18304l-1.93536 1.15712-22.7328-22.784a25.6 25.6 0 0 0-34.85696-1.24928l-1.3312 1.24928-36.2496 36.1984a25.6 25.6 0 0 0-1.2288 34.8672l1.23904 1.3312 22.784 22.77376-1.14688 1.92512a203.50976 203.50976 0 0 0-20.19328 48.61952L252.32384 271.36H220.16a25.6 25.6 0 0 0-25.5488 23.92064L194.56 296.96v51.2a25.6 25.6 0 0 0 23.92064 25.5488L220.16 373.76h32.16384l0.5632 2.2016a203.48928 203.48928 0 0 0 20.19328 48.61952l1.14688 1.93536-22.784 22.7328a25.6 25.6 0 0 0-1.24928 34.85696l1.23904 1.3312 36.17792 36.2496a25.6 25.6 0 0 0 34.85696 1.2288l1.34144-1.2288 22.79424-22.79424 1.9456 1.14688a203.50976 203.50976 0 0 0 48.60928 20.19328l2.2016 0.5632V552.96a25.6 25.6 0 0 0 23.92064 25.5488L424.96 578.56h51.2a25.6 25.6 0 0 0 25.088-20.48h6.61504l0.38912 1.3312c2.816 9.09312 6.54336 17.88928 11.1104 26.24512l0.60416 1.09568-14.848 14.848a25.6 25.6 0 0 0-1.24928 34.84672l1.24928 1.34144 19.29216 19.3536a25.6 25.6 0 0 0 36.1984 0l14.85824-14.848 1.09568 0.6144a142.44864 142.44864 0 0 0 26.27584 11.08992l1.32096 0.38912V675.84a25.6 25.6 0 0 0 23.92064 25.5488L629.76 701.44z m-184.32-143.36h-51.2a5.12 5.12 0 0 1-5.03808-4.1984L419.84 552.96v-40.2432a10.24 10.24 0 0 0-8.0896-10.01472 183.02976 183.02976 0 0 1-61.09184-25.37472 10.24 10.24 0 0 0-11.83744 0.49152l-0.9728 0.86016-28.5184 28.5184a5.12 5.12 0 0 1-6.52288 0.59392l-0.7168-0.59392-36.16768-36.22912a5.12 5.12 0 0 1-0.59392-6.52288l0.58368-0.7168 28.5184-28.44672a10.24 10.24 0 0 0 1.36192-12.82048 183.00928 183.00928 0 0 1-25.37472-61.09184 10.24 10.24 0 0 0-8.82688-8.01792L260.4032 353.28H220.16a5.12 5.12 0 0 1-5.03808-4.1984L215.04 348.16v-51.2a5.12 5.12 0 0 1 4.1984-5.03808l0.9216-0.08192h40.2432a10.24 10.24 0 0 0 10.01472-8.0896 183.02976 183.02976 0 0 1 25.37472-61.09184 10.24 10.24 0 0 0-0.49152-11.83744l-0.86016-0.9728-28.5184-28.48768a5.12 5.12 0 0 1-0.59392-6.52288l0.59392-0.7168 36.22912-36.1984a5.12 5.12 0 0 1 6.52288-0.59392l0.7168 0.58368 28.44672 28.50816a10.24 10.24 0 0 0 12.82048 1.36192 183.02976 183.02976 0 0 1 61.09184-25.36448 10.24 10.24 0 0 0 8.01792-8.82688l0.07168-1.18784v-40.2432a5.12 5.12 0 0 1 4.1984-5.03808l0.9216-0.08192h51.2a5.12 5.12 0 0 1 5.03808 4.1984L481.28 92.16v40.2432a10.24 10.24 0 0 0 8.0896 10.01472 183.02976 183.02976 0 0 1 61.09184 25.37472 10.24 10.24 0 0 0 11.83744-0.49152l0.9728-0.86016 28.5184-28.5184a5.12 5.12 0 0 1 6.52288-0.59392l0.7168 0.59392 36.16768 36.22912a5.12 5.12 0 0 1 0.59392 6.52288l-0.58368 0.7168-28.50816 28.44672a10.24 10.24 0 0 0-1.36192 12.82048 183.02976 183.02976 0 0 1 25.36448 61.09184 10.24 10.24 0 0 0 8.82688 8.01792L640.7168 291.84h40.2432a5.12 5.12 0 0 1 5.03808 4.1984L686.08 296.96v51.2a5.09952 5.09952 0 0 1-1.024 3.072 25.62048 25.62048 0 0 0-22.89664-18.3808L660.48 332.8h-30.72a25.6 25.6 0 0 0-25.6 25.6v21.46304l-1.32096 0.37888a142.44864 142.44864 0 0 0-26.27584 11.08992l-1.09568 0.62464-14.85824-14.85824a25.52832 25.52832 0 0 0-19.08736-7.4752A101.80608 101.80608 0 0 0 552.96 322.56c0-56.55552-45.84448-102.4-102.4-102.4s-102.4 45.84448-102.4 102.4 45.84448 102.4 102.4 102.4c16.96768 0 32.9728-4.12672 47.07328-11.43808-0.27648 6.8608 2.21184 13.83424 7.46496 19.08736l14.848 14.86848-0.6144 1.08544a142.44864 142.44864 0 0 0-11.08992 26.27584L507.86304 476.16H486.4a25.6 25.6 0 0 0-25.5488 23.92064L460.8 501.76v30.72c0 11.64288 7.7824 21.47328 18.41152 24.576a4.9664 4.9664 0 0 1-2.12992 0.94208L476.16 558.08zM450.56 404.48a81.92 81.92 0 1 1 0-163.84 81.92 81.92 0 0 1 0 163.84z m209.92 276.48h-30.72a5.12 5.12 0 0 1-5.12-5.12v-29.30688a10.24 10.24 0 0 0-7.8848-9.96352c-13.2608-3.13344-25.9072-8.46848-37.40672-15.79008a10.24 10.24 0 0 0-12.73856 1.40288l-20.48 20.48a5.12 5.12 0 0 1-7.22944 0.01024l-19.29216-19.3536a5.12 5.12 0 0 1 0-7.23968l20.48-20.48a10.24 10.24 0 0 0 1.39264-12.73856 121.96864 121.96864 0 0 1-15.81056-37.376 10.24 10.24 0 0 0-9.96352-7.8848H486.4a5.12 5.12 0 0 1-5.12-5.12v-30.72a5.12 5.12 0 0 1 5.12-5.12h29.30688a10.24 10.24 0 0 0 9.96352-7.8848c3.13344-13.2608 8.46848-25.9072 15.79008-37.40672a10.24 10.24 0 0 0-1.40288-12.73856l-20.48-20.48a5.12 5.12 0 0 1 0-7.23968l19.31264-19.31264a5.12 5.12 0 0 1 7.23968 0l20.48 20.48a10.24 10.24 0 0 0 12.73856 1.40288 121.96864 121.96864 0 0 1 37.40672-15.79008 10.24 10.24 0 0 0 7.8848-9.96352V358.4a5.12 5.12 0 0 1 5.12-5.12h30.72a5.12 5.12 0 0 1 5.12 5.12v29.30688a10.24 10.24 0 0 0 7.8848 9.96352 121.96864 121.96864 0 0 1 37.40672 15.79008 10.24 10.24 0 0 0 12.73856-1.40288l20.48-20.48a5.12 5.12 0 0 1 7.23968 0l19.31264 19.31264a5.12 5.12 0 0 1 0 7.23968l-20.48 20.48a10.24 10.24 0 0 0-1.40288 12.73856 121.96864 121.96864 0 0 1 15.79008 37.40672 10.24 10.24 0 0 0 9.96352 7.8848H803.84a5.12 5.12 0 0 1 5.12 5.12v30.72a5.12 5.12 0 0 1-5.12 5.12h-29.30688a10.24 10.24 0 0 0-9.96352 7.8848 121.96864 121.96864 0 0 1-15.79008 37.40672 10.24 10.24 0 0 0 1.40288 12.73856l20.48 20.48a5.12 5.12 0 0 1 0.01024 7.22944l-19.3536 19.29216a5.12 5.12 0 0 1-7.23968 0l-20.48-20.48a10.24 10.24 0 0 0-12.73856-1.39264 121.96864 121.96864 0 0 1-37.376 15.81056 10.24 10.24 0 0 0-7.8848 9.96352V675.84a5.12 5.12 0 0 1-5.12 5.12zM645.12 588.8a71.68 71.68 0 1 0 0-143.36 71.68 71.68 0 0 0 0 143.36z m0-20.48a51.2 51.2 0 1 1 0-102.4 51.2 51.2 0 0 1 0 102.4z"  horiz-adv-x="1024" />

    
    <glyph glyph-name="xinzengyuanquan" unicode="&#59224;" d="M512 701.44c175.3088 0 317.44-142.1312 317.44-317.44 0-175.3088-142.1312-317.44-317.44-317.44-175.3088 0-317.44 142.1312-317.44 317.44 0 175.3088 142.1312 317.44 317.44 317.44z m0-20.48c-164.00384 0-296.96-132.95616-296.96-296.96s132.95616-296.96 296.96-296.96 296.96 132.95616 296.96 296.96-132.95616 296.96-296.96 296.96z m0-122.88a10.24 10.24 0 0 0 10.16832-9.04192L522.24 547.84v-153.6h153.6a10.24 10.24 0 0 0 1.19808-20.40832L675.84 373.76H522.24v-153.6a10.24 10.24 0 0 0-20.40832-1.19808L501.76 220.16V373.76H348.16a10.24 10.24 0 0 0-1.19808 20.40832L348.16 394.24h153.6V547.84a10.24 10.24 0 0 0 10.24 10.24z"  horiz-adv-x="1024" />

    
    <glyph glyph-name="shuipingfangda" unicode="&#59225;" d="M204.8 578.56a10.24 10.24 0 0 0 10.16832-9.04192L215.04 568.32v-368.64a10.24 10.24 0 0 0-20.40832-1.19808L194.56 199.68V568.32a10.24 10.24 0 0 0 10.24 10.24z m614.4 0a10.24 10.24 0 0 0 10.16832-9.04192L829.44 568.32v-368.64a10.24 10.24 0 0 0-20.40832-1.19808L808.96 199.68V568.32a10.24 10.24 0 0 0 10.24 10.24zM660.0704 475.01312l1.0752-0.64512 1.024-0.79872 92.16-81.92c0.36864-0.32768 0.70656-0.67584 1.024-1.04448l0.7168-0.9728 0.62464-1.08544 0.2048-0.44032c1.14688-2.6112 1.14688-5.60128 0-8.21248l-0.47104-0.95232-0.59392-0.9216-0.74752-0.9216-0.768-0.74752-92.16-81.92a10.24 10.24 0 0 0-14.51008 14.3872l0.91136 0.9216L720.57856 373.76H303.4112l72.02816-64.03072a10.24 10.24 0 0 0 1.6384-13.43488l-0.78848-1.024a10.24 10.24 0 0 0-13.43488-1.6384l-1.024 0.79872-92.16 81.92a10.36288 10.36288 0 0 0-1.024 1.04448l-0.7168 0.9728-0.62464 1.08544-0.2048 0.44032a10.28096 10.28096 0 0 0 0 8.21248l0.47104 0.95232 0.59392 0.9216 0.74752 0.9216 0.768 0.74752 92.16 81.92a10.24 10.24 0 0 0 14.51008-14.3872l-0.91136-0.9216L303.4112 394.24h417.16736l-72.01792 64.03072a10.24 10.24 0 0 0-1.6384 13.43488l0.78848 1.024a10.24 10.24 0 0 0 12.35968 2.28352z"  horiz-adv-x="1024" />

    
    <glyph glyph-name="tuichu3" unicode="&#59226;" d="M819.2 701.44a10.4448 10.4448 0 0 0 4.95616-1.28 8.99072 8.99072 0 0 0 1.36192-0.90112c0.64512-0.512 1.2288-1.09568 1.7408-1.7408l-0.8192 0.9216a10.32192 10.32192 0 0 0 2.88768-5.72416A10.20928 10.20928 0 0 0 829.44 691.2l-0.04096 0.88064 0.03072-0.55296L829.44 691.2v-614.4a10.42432 10.42432 0 0 0-1.49504-5.3248 10.5984 10.5984 0 0 0-2.42688-2.73408l0.9216 0.8192a10.32192 10.32192 0 0 0-5.72416-2.88768A10.20928 10.20928 0 0 0 819.2 66.56l0.8704 0.04096a10.30144 10.30144 0 0 0-0.53248-0.03072L819.2 66.56H204.8a10.42432 10.42432 0 0 0-5.3248 1.49504 10.5984 10.5984 0 0 0-2.73408 2.42688l0.8192-0.9216a10.32192 10.32192 0 0 0-2.88768 5.72416A10.20928 10.20928 0 0 0 194.56 76.8l0.04096-0.9216a10.30144 10.30144 0 0 0-0.04096 0.7168V691.2a10.4448 10.4448 0 0 0 1.28 4.95616 8.99072 8.99072 0 0 0 0.90112 1.36192c0.512 0.6656 1.1264 1.25952 1.792 1.78176l-0.9728-0.86016a10.31168 10.31168 0 0 0 6.144 2.93888L204.8 701.44zM512 369.5104L229.51936 87.04h564.95104L512 369.5104z m296.96 296.97024L526.4896 384 808.96 101.5296V666.48064z m-593.92-0.01024v-564.93056L497.5104 384 215.04 666.4704zM794.46016 680.96H229.5296L512 398.4896 794.46016 680.96z"  horiz-adv-x="1024" />

    
    <glyph glyph-name="suiji2" unicode="&#59227;" d="M538.49088 341.0944l0.9728-0.79872 0.88064-0.94208 51.2-61.44 0.65536-0.8704c16.62976-24.94464 41.15456-35.72736 79.85152-36.37248L675.84 240.64h118.64064l-64.44032 64.44032a10.24 10.24 0 0 0-0.84992 13.5168l0.84992 0.96256a10.24 10.24 0 0 0 13.5168 0.84992l0.96256-0.84992 81.92-81.92c0.29696-0.28672 0.5632-0.60416 0.8192-0.9216l-0.8192 0.9216a10.32192 10.32192 0 0 0 2.99008-6.912L829.44 230.4v-0.33792l-0.04096-0.53248L829.44 230.4a10.32192 10.32192 0 0 0-2.74432-6.97344l-0.256-0.26624-81.92-81.92a10.24 10.24 0 0 0-15.32928 13.5168l0.84992 0.96256L794.46016 220.16H675.84c-45.824 0-77.39392 12.61568-98.816 42.8032l-1.50528 2.19136-50.90304 61.09184a10.24 10.24 0 0 0 0.36864 13.53728l0.94208 0.88064a10.24 10.24 0 0 0 12.56448 0.43008z m205.06624 286.5152l0.96256-0.84992 81.92-81.92c0.29696-0.28672 0.5632-0.60416 0.8192-0.9216l-0.8192 0.9216a10.32192 10.32192 0 0 0 2.99008-6.912L829.44 537.6v-0.33792l-0.04096-0.53248L829.44 537.6a10.32192 10.32192 0 0 0-2.2528-6.4l-0.74752-0.83968-81.92-81.92a10.24 10.24 0 0 0-15.32928 13.5168l0.84992 0.96256L794.4704 527.36H675.84c-39.6288 0-64.86016-10.00448-82.2272-34.34496l-1.64864-2.39616L428.032 265.216c-10.752-14.32576-20.64384-24.33024-30.95552-31.20128-12.50304-8.33536-22.69184-11.78624-40.8576-13.1072l-5.40672-0.32768-5.89824-0.22528-3.15392-0.07168-6.72768-0.1024L327.68 220.16H215.04a10.24 10.24 0 0 0-1.19808 20.40832L215.04 240.64h116.1216l9.45152 0.1024 5.57056 0.14336 5.03808 0.22528 4.56704 0.3072c13.76256 1.14688 21.18656 3.80928 29.93152 9.63584 7.4752 4.98688 15.09376 12.46208 23.52128 23.296l2.31424 3.03104 163.60448 224.94208c20.82816 31.232 51.69152 44.73856 96.6656 45.48608L675.84 547.84h118.6304l-64.43008 64.44032a10.24 10.24 0 0 0-0.84992 13.5168l0.84992 0.96256a10.24 10.24 0 0 0 13.5168 0.84992zM331.43808 547.84l7.03488-0.06144 3.28704-0.06144 6.16448-0.17408 2.88768-0.12288 5.41696-0.31744c18.15552-1.3312 28.34432-4.78208 40.84736-13.11744 9.5232-6.3488 18.688-15.36 28.55936-28.0576l2.47808-3.25632 52.224-71.68a10.24 10.24 0 0 0-15.72864-13.056l-0.8192 0.99328L411.648 490.496c-9.45152 12.5952-17.77664 21.00224-25.92768 26.44992-8.74496 5.82656-16.1792 8.48896-29.93152 9.6256l-4.56704 0.31744-5.03808 0.22528-5.57056 0.14336-9.46176 0.1024H215.04a10.24 10.24 0 0 0-1.19808 20.40832L215.04 547.84h116.39808z"  horiz-adv-x="1024" />

    
    <glyph glyph-name="quanping" unicode="&#59228;" d="M204.8 250.88a10.24 10.24 0 0 0 10.16832-9.04192L215.04 240.64v-98.17088l105.40032 105.41056a10.24 10.24 0 0 0 15.32928-13.5168l-0.84992-0.96256L229.55008 128H327.68a10.24 10.24 0 0 0 10.16832-9.04192L337.92 117.76a10.24 10.24 0 0 0-9.04192-10.16832L327.68 107.52l-123.45344 0.02048-1.01376 0.1024-0.8192 0.16384-1.1264 0.33792-0.63488 0.27648a10.20928 10.20928 0 0 0-6.00064 8.1408L194.56 117.76V240.64a10.24 10.24 0 0 0 10.24 10.24z m614.4 0a10.24 10.24 0 0 0 10.16832-9.04192L829.44 240.64v-122.88a10.24 10.24 0 0 0-4.9152-8.7552l-1.32096-0.65536-0.48128-0.2048-1.11616-0.33792-1.20832-0.21504L819.2 107.52H696.32a10.24 10.24 0 0 0-1.19808 20.40832L696.32 128h98.11968l-105.3696 105.40032a10.24 10.24 0 0 0 13.52704 15.32928l0.96256-0.84992L808.96 142.45888V240.64a10.24 10.24 0 0 0 9.04192 10.16832L819.2 250.88zM634.88 476.16a10.24 10.24 0 0 0 10.24-10.24v-163.84a10.24 10.24 0 0 0-10.24-10.24H389.12a10.24 10.24 0 0 0-10.24 10.24V465.92a10.24 10.24 0 0 0 10.24 10.24z m-10.24-20.48H399.36v-143.36h225.28V455.68zM327.68 660.48a10.24 10.24 0 0 0 1.19808-20.40832L327.68 640h-98.11968l105.3696-105.40032a10.24 10.24 0 0 0-13.52704-15.32928l-0.96256 0.84992L215.04 625.54112V527.36a10.24 10.24 0 0 0-9.04192-10.16832L204.8 517.12a10.24 10.24 0 0 0-10.16832 9.04192L194.56 527.36V650.24a10.24 10.24 0 0 0 4.9152 8.7552l1.32096 0.65536 0.48128 0.2048 1.11616 0.33792 1.20832 0.21504L204.8 660.48h122.88z m491.52 0c0.54272 0 1.06496-0.04096 1.5872-0.12288l0.8192-0.16384 1.1264-0.33792 0.63488-0.27648c3.23584-1.4336 5.5808-4.49536 6.00064-8.1408L829.44 650.24v-122.88a10.24 10.24 0 0 0-20.40832-1.19808L808.96 527.36v98.19136L703.55968 520.12032a10.24 10.24 0 0 0-15.32928 13.5168l0.84992 0.96256L794.4192 640H696.32a10.24 10.24 0 0 0-10.16832 9.04192L686.08 650.24a10.24 10.24 0 0 0 9.04192 10.16832L696.32 660.48h122.88z"  horiz-adv-x="1024" />

    
    <glyph glyph-name="wenzijiancha" unicode="&#59229;" d="M450.56 148.48a10.24 10.24 0 0 0 1.19808-20.40832L450.56 128H204.8a10.24 10.24 0 0 0-1.19808 20.40832L204.8 148.48h245.76z m345.15968 181.31968a10.24 10.24 0 0 0 0.84992-13.5168l-0.84992-0.96256-163.84-163.84a10.24 10.24 0 0 0-14.00832-0.44032l-0.88064 0.88064-81.92 92.16a10.24 10.24 0 0 0 14.3872 14.51008l0.9216-0.91136 74.69056-84.02944 156.16 156.16a10.24 10.24 0 0 0 14.4896 0zM450.56 312.32a10.24 10.24 0 0 0 1.19808-20.40832L450.56 291.84H204.8a10.24 10.24 0 0 0-1.19808 20.40832L204.8 312.32h245.76z m368.64 163.84a10.24 10.24 0 0 0 1.19808-20.40832L819.2 455.68H204.8a10.24 10.24 0 0 0-1.19808 20.40832L204.8 476.16h614.4z m0 163.84a10.24 10.24 0 0 0 1.19808-20.40832L819.2 619.52H204.8a10.24 10.24 0 0 0-1.19808 20.40832L204.8 640h614.4z"  horiz-adv-x="1024" />

    
    <glyph glyph-name="zuoshangjiantoufangxing" unicode="&#59230;" d="M819.2 701.44a10.24 10.24 0 0 0 10.24-10.24v-614.4a10.24 10.24 0 0 0-10.24-10.24H204.8a10.24 10.24 0 0 0-10.24 10.24V691.2a10.24 10.24 0 0 0 10.24 10.24z m-10.24-20.48H215.04v-593.92h593.92V680.96zM563.2 527.36a10.24 10.24 0 0 0 1.19808-20.40832L563.2 506.88H403.6096l238.51008-238.52032a10.24 10.24 0 0 0-5.4272-17.31584l-1.20832-0.14336h-1.20832a10.19904 10.19904 0 0 0-5.67296 2.12992l-0.96256 0.84992L389.12 492.3904V332.8a10.24 10.24 0 0 0-9.04192-10.16832L378.88 322.56a10.24 10.24 0 0 0-10.16832 9.04192L368.64 332.8V517.12l0.03072 0.768 0.17408 1.29024 0.3072 1.13664 0.45056 1.13664 0.53248 1.00352 0.68608 0.98304 0.8192 0.9216a10.3424 10.3424 0 0 0 1.14688 0.99328l1.1264 0.72704 1.16736 0.55296 1.0752 0.3584 1.536 0.3072L378.88 527.36h184.32z"  horiz-adv-x="1024" />

    
    <glyph glyph-name="caidan2" unicode="&#59231;" d="M819.2 209.92a10.24 10.24 0 0 0 1.19808-20.40832L819.2 189.44H204.8a10.24 10.24 0 0 0-1.19808 20.40832L204.8 209.92h614.4zM573.44 394.24a10.24 10.24 0 0 0 1.19808-20.40832L573.44 373.76H204.8a10.24 10.24 0 0 0-1.19808 20.40832L204.8 394.24h368.64z m245.76 184.32a10.24 10.24 0 0 0 1.19808-20.40832L819.2 558.08H204.8a10.24 10.24 0 0 0-1.19808 20.40832L204.8 578.56h614.4z"  horiz-adv-x="1024" />

    
    <glyph glyph-name="wenti" unicode="&#59232;" d="M512 250.88a40.96 40.96 0 1 0 0-81.92 40.96 40.96 0 0 0 0 81.92z m0-20.48a20.48 20.48 0 1 1 0-40.96 20.48 20.48 0 0 1 0 40.96z m6.01088 368.64C588.94336 599.04 624.64 545.64864 624.64 492.4416c0-32.4608-13.54752-61.7472-51.68128-100.72064l-3.23584-3.2768c-35.95264-35.92192-46.8992-56.54528-47.4624-79.33952L522.24 307.2V281.6a10.24 10.24 0 0 0-20.40832-1.19808L501.76 281.6v25.6c0 28.8768 12.32896 53.92384 50.33984 92.5696l3.14368 3.1744C592.24064 439.92064 604.16 464.93696 604.16 492.4416c0 43.22304-28.672 86.1184-86.14912 86.1184C455.7824 578.56 419.84 537.56928 419.84 492.4416a10.24 10.24 0 0 0-20.48 0C399.36 548.32128 443.82208 599.04 518.01088 599.04z"  horiz-adv-x="1024" />

    
    <glyph glyph-name="zhongzuo2" unicode="&#59233;" d="M681.7792 607.37536l1.00352-0.8192 133.12-122.88 0.09216-0.07168c0.23552-0.22528 0.4608-0.4608 0.67584-0.70656l-0.768 0.78848a10.20928 10.20928 0 0 0 0.8704-14.1312l-0.1024-0.13312c-0.21504-0.24576-0.44032-0.48128-0.67584-0.70656l-0.09216-0.08192-133.12-122.88a10.24 10.24 0 0 0-14.77632 14.12096l0.89088 0.9216L782.7456 465.92H358.4c-79.17568 0-143.36-64.18432-143.36-143.36 0-78.11072 62.464-141.6192 140.15488-143.32928L358.4 179.2h460.8a10.24 10.24 0 0 0 1.19808-20.40832L819.2 158.72H358.4c-90.49088 0-163.84 73.34912-163.84 163.84 0 89.40544 71.61856 162.0992 160.6144 163.80928L358.4 486.4h424.37632L668.89728 591.5136a10.24 10.24 0 0 0-1.39264 13.47584l0.8192 0.99328a10.24 10.24 0 0 0 13.4656 1.39264z"  horiz-adv-x="1024" />

    
    <glyph glyph-name="zuidahua" unicode="&#59234;" d="M819.2 701.44a10.24 10.24 0 0 0 10.16832-9.04192L829.44 691.2v-327.68a10.24 10.24 0 0 0-20.40832-1.19808L808.96 363.52V680.96H215.04v-593.92h317.44a10.24 10.24 0 0 0 10.16832-9.04192L542.72 76.8a10.24 10.24 0 0 0-9.04192-10.16832L532.48 66.56H204.8a10.24 10.24 0 0 0-10.16832 9.04192L194.56 76.8V691.2a10.24 10.24 0 0 0 9.04192 10.16832L204.8 701.44h614.4z m-61.44-368.64a10.24 10.24 0 0 0 1.19808-20.40832L757.76 312.32H598.1696l228.27008-228.28032a10.24 10.24 0 0 0-13.5168-15.32928l-0.96256 0.84992L583.68 297.8304V138.24a10.24 10.24 0 0 0-9.04192-10.16832L573.44 128a10.24 10.24 0 0 0-10.16832 9.04192L563.2 138.24V322.56l0.03072 0.768 0.17408 1.29024 0.3072 1.13664 0.45056 1.13664 0.53248 1.00352 0.68608 0.98304 0.8192 0.9216a10.3424 10.3424 0 0 0 1.14688 0.99328l1.1264 0.72704 1.16736 0.55296 1.0752 0.3584 1.536 0.3072L573.44 332.8h184.32z"  horiz-adv-x="1024" />

    
    <glyph glyph-name="chexiao2" unicode="&#59235;" d="M665.6 609.28c90.49088 0 163.84-73.34912 163.84-163.84 0-89.40544-71.61856-162.0992-160.6144-163.80928L665.6 281.6H241.22368l113.87904-105.1136a10.24 10.24 0 0 0 1.39264-13.47584l-0.8192-0.99328a10.24 10.24 0 0 0-13.4656-1.39264l-0.99328 0.8192-133.12 122.88-0.09216 0.07168a10.30144 10.30144 0 0 0-0.67584 0.70656l0.768-0.78848a10.20928 10.20928 0 0 0-0.8704 14.1312l0.1536 0.18432 0.62464 0.65536 0.09216 0.08192 133.12 122.88a10.24 10.24 0 0 0 14.77632-14.12096l-0.89088-0.9216L241.2032 302.08H665.6c79.17568 0 143.36 64.18432 143.36 143.36 0 78.11072-62.464 141.6192-140.15488 143.32928L665.6 588.8H204.8a10.24 10.24 0 0 0-1.19808 20.40832L204.8 609.28h460.8z"  horiz-adv-x="1024" />

    
    <glyph glyph-name="gantanhao" unicode="&#59236;" d="M512 250.88a40.96 40.96 0 1 0 0-81.92 40.96 40.96 0 0 0 0 81.92z m0-20.48a20.48 20.48 0 1 1 0-40.96 20.48 20.48 0 0 1 0 40.96z m0 368.64a10.24 10.24 0 0 0 10.16832-9.04192L522.24 588.8v-266.24a10.24 10.24 0 0 0-20.40832-1.19808L501.76 322.56V588.8a10.24 10.24 0 0 0 10.24 10.24z"  horiz-adv-x="1024" />

    
    <glyph glyph-name="kongzhi1" unicode="&#59237;" d="M266.24 660.48a10.24 10.24 0 0 0 10.16832-9.04192L276.48 650.24l0.01024-441.04704A71.70048 71.70048 0 0 0 266.24 66.56a71.68 71.68 0 0 0-10.24 142.6432V650.24a10.24 10.24 0 0 0 10.24 10.24z m0-471.04a51.2 51.2 0 1 1 0-102.4 51.2 51.2 0 0 1 0 102.4z m245.76 471.04a10.24 10.24 0 0 0 10.16832-9.04192L522.24 650.24l0.01024-195.28704a71.70048 71.70048 0 0 0 0-141.90592L522.24 117.76a10.24 10.24 0 0 0-20.40832-1.19808L501.76 117.76V313.0368a71.70048 71.70048 0 0 0 0 141.9264V650.24a10.24 10.24 0 0 0 10.24 10.24z m245.76 40.96a71.68 71.68 0 0 0 10.25024-142.63296L768 117.76a10.24 10.24 0 0 0-20.40832-1.19808L747.52 117.76V558.7968A71.70048 71.70048 0 0 0 757.76 701.44zM512 435.18976L511.86688 435.2A51.2 51.2 0 1 1 512 435.2h0.13312l-0.13312-0.01024zM757.76 680.96a51.2 51.2 0 1 1 0-102.4 51.2 51.2 0 0 1 0 102.4z"  horiz-adv-x="1024" />

    
    <glyph glyph-name="fenkai1" unicode="&#59238;" d="M742.51264 659.0464l1.04448-0.7168 0.96256-0.84992 81.92-81.92c0.29696-0.28672 0.5632-0.60416 0.8192-0.9216l-0.8192 0.9216a10.32192 10.32192 0 0 0 2.99008-6.912L829.44 568.32v-0.33792l-0.04096-0.53248L829.44 568.32a10.32192 10.32192 0 0 0-2.2528-6.4l-0.74752-0.83968-81.92-81.92a10.24 10.24 0 0 0-15.32928 13.5168l0.84992 0.96256L794.46016 558.08h-145.1008L475.2896 384l174.08-174.08h145.11104l-64.44032 64.44032a10.24 10.24 0 0 0-0.84992 13.5168l0.84992 0.96256a10.24 10.24 0 0 0 12.47232 1.56672l1.04448-0.7168 0.96256-0.84992 81.92-81.92c0.29696-0.28672 0.5632-0.60416 0.8192-0.9216l-0.8192 0.9216a10.32192 10.32192 0 0 0 2.92864-6.0416l0.03072-0.3072 0.03072-0.5632L829.44 199.68v-0.33792l-0.04096-0.53248L829.44 199.68a10.32192 10.32192 0 0 0-2.2528-6.4l-0.74752-0.83968-81.92-81.92a10.24 10.24 0 0 0-15.32928 13.5168l0.84992 0.96256L794.46016 189.44H645.12a10.24 10.24 0 0 0-6.22592 2.10944l-1.024 0.89088L456.56064 373.76H215.04a10.24 10.24 0 0 0-1.19808 20.40832L215.04 394.24h241.50016l181.34016 181.31968a10.24 10.24 0 0 0 5.89824 2.90816L645.12 578.56h149.36064l-64.44032 64.44032a10.24 10.24 0 0 0-0.84992 13.5168l0.84992 0.96256a10.24 10.24 0 0 0 12.47232 1.56672z"  horiz-adv-x="1024" />

    
    <glyph glyph-name="shuipingjunhengqi2" unicode="&#59239;" d="M819.2 701.44a10.24 10.24 0 0 0 10.24-10.24v-614.4a10.24 10.24 0 0 0-10.24-10.24H204.8a10.24 10.24 0 0 0-10.24 10.24V691.2a10.24 10.24 0 0 0 10.24 10.24z m-10.24-20.48H215.04v-593.92h593.92V680.96zM634.88 291.84a10.24 10.24 0 0 0 10.16832-9.04192L645.12 281.6v-51.2h51.2a10.24 10.24 0 0 0 1.19808-20.40832L696.32 209.92h-51.2v-51.2a10.24 10.24 0 0 0-20.40832-1.19808L624.64 158.72v51.2H327.68a10.24 10.24 0 0 0-1.19808 20.40832L327.68 230.4h296.96v51.2a10.24 10.24 0 0 0 10.24 10.24zM512 455.68a10.24 10.24 0 0 0 10.16832-9.04192L522.24 445.44v-51.2h174.08a10.24 10.24 0 0 0 1.19808-20.40832L696.32 373.76H522.24v-51.2a10.24 10.24 0 0 0-20.40832-1.19808L501.76 322.56v51.2H327.68a10.24 10.24 0 0 0-1.19808 20.40832L327.68 394.24h174.08v51.2a10.24 10.24 0 0 0 10.24 10.24zM348.16 619.52a10.24 10.24 0 0 0 10.16832-9.04192L358.4 609.28v-51.2h337.92a10.24 10.24 0 0 0 1.19808-20.40832L696.32 537.6H358.4v-51.2a10.24 10.24 0 0 0-20.40832-1.19808L337.92 486.4V609.28a10.24 10.24 0 0 0 10.24 10.24z"  horiz-adv-x="1024" />

    
    <glyph glyph-name="kongzhi2" unicode="&#59240;" d="M512 660.48a10.24 10.24 0 0 0 10.16832-9.04192L522.24 650.24v-256h51.2a10.24 10.24 0 0 0 1.19808-20.40832L573.44 373.76h-51.2v-256a10.24 10.24 0 0 0-20.40832-1.19808L501.76 117.76V373.76h-51.2a10.24 10.24 0 0 0-1.19808 20.40832L450.56 394.24h51.2V650.24a10.24 10.24 0 0 0 10.24 10.24z m245.76 0a10.24 10.24 0 0 0 10.16832-9.04192L768 650.24v-71.68h51.2a10.24 10.24 0 0 0 1.19808-20.40832L819.2 558.08h-51.2v-440.32a10.24 10.24 0 0 0-20.40832-1.19808L747.52 117.76V558.08h-51.2a10.24 10.24 0 0 0-1.19808 20.40832L696.32 578.56h51.2v71.68a10.24 10.24 0 0 0 10.24 10.24zM204.8 128a10.24 10.24 0 0 0-1.19808 20.40832L204.8 148.48h51.2V650.24a10.24 10.24 0 0 0 20.40832 1.19808L276.48 650.24v-501.76h51.2a10.24 10.24 0 0 0 1.19808-20.40832L327.68 128H204.8z"  horiz-adv-x="1024" />

    
    <glyph glyph-name="suojinzuo" unicode="&#59241;" d="M532.48 250.88a10.24 10.24 0 0 0 1.19808-20.40832L532.48 230.4H245.76a10.24 10.24 0 0 0-1.19808 20.40832L245.76 250.88h286.72z m253.5424 262.656a10.24 10.24 0 0 0-0.2048-13.53728l-0.9216-0.89088-134.28736-115.0464 134.2976-115.16928a10.24 10.24 0 0 0 1.88416-13.4144l-0.77824-1.024a10.24 10.24 0 0 0-13.4144-1.88416l-1.024 0.77824-143.36 122.94144a10.24 10.24 0 0 0-0.89088 14.6944l0.89088 0.84992 143.36 122.81856a10.24 10.24 0 0 0 14.4384-1.10592zM532.48 394.24a10.24 10.24 0 0 0 1.19808-20.40832L532.48 373.76H245.76a10.24 10.24 0 0 0-1.19808 20.40832L245.76 394.24h286.72z m0 143.36a10.24 10.24 0 0 0 1.19808-20.40832L532.48 517.12H245.76a10.24 10.24 0 0 0-1.19808 20.40832L245.76 537.6h286.72z"  horiz-adv-x="1024" />

    
    <glyph glyph-name="xiangzuoxuanzhuan" unicode="&#59242;" d="M288.4096 333.34272l-0.9216 0.04096a10.33216 10.33216 0 0 0-1.4336 0.23552l-0.31744 0.08192a9.5232 9.5232 0 0 0-2.87744 1.30048 7.97696 7.97696 0 0 0-0.58368 0.39936l-0.32768 0.26624a8.22272 8.22272 0 0 0-1.20832 1.16736l-0.08192 0.1024a10.24 10.24 0 0 0-0.53248 0.6656l-0.14336 0.2048-83.64032 122.33728a10.24 10.24 0 0 0 16.11776 12.57472l0.79872-1.024 63.24224-92.49792c2.19136 119.69536 81.95072 226.3552 199.63904 260.4544 129.62816 37.55008 267.42784-23.92064 326.10304-145.44896 58.6752-121.53856 21.0944-267.6736-88.94464-345.81504-110.0288-78.15168-260.38272-65.50528-355.80928 29.93152a10.24 10.24 0 0 0 14.47936 14.47936c88.3712-88.3712 227.59424-100.07552 329.472-27.71968 101.888 72.36608 136.68352 207.67744 82.36032 320.21504-54.33344 112.5376-181.93408 169.45152-301.96736 134.68672-113.32608-32.82944-188.68224-138.3424-184.75008-254.52544l95.20128 87.52128a10.24 10.24 0 0 0 13.53728 0.28672l0.93184-0.89088a10.24 10.24 0 0 0 0.28672-13.53728l-0.89088-0.93184-110.77632-101.85728-0.21504-0.2048a10.24 10.24 0 0 0-0.55296-0.43008l0.768 0.63488a10.37312 10.37312 0 0 0-5.70368-2.63168h-0.06144l-0.78848-0.06144-0.3584-0.01024h-0.0512z"  horiz-adv-x="1024" />

    
    <glyph glyph-name="caidan1" unicode="&#59243;" d="M696.32 250.88a10.24 10.24 0 0 0 1.19808-20.40832L696.32 230.4H327.68a10.24 10.24 0 0 0-1.19808 20.40832L327.68 250.88h368.64z m0 143.36a10.24 10.24 0 0 0 1.19808-20.40832L696.32 373.76H327.68a10.24 10.24 0 0 0-1.19808 20.40832L327.68 394.24h368.64z m0 143.36a10.24 10.24 0 0 0 1.19808-20.40832L696.32 517.12H327.68a10.24 10.24 0 0 0-1.19808 20.40832L327.68 537.6h368.64z"  horiz-adv-x="1024" />

    
    <glyph glyph-name="fuxuankuangfangxing" unicode="&#59244;" d="M573.44 619.52a10.24 10.24 0 0 0 1.19808-20.40832L573.44 599.04H215.12192v-512h512L727.04 384a10.24 10.24 0 0 0 9.04192 10.16832L737.28 394.24a10.24 10.24 0 0 0 10.16832-9.04192L747.52 384l0.08192-307.2a10.24 10.24 0 0 0-9.04192-10.16832l-1.19808-0.07168h-532.48a10.24 10.24 0 0 0-10.16832 9.04192L194.64192 76.8V609.28a10.24 10.24 0 0 0 9.04192 10.16832l1.19808 0.07168H573.44z m252.2112 79.63648a10.24 10.24 0 0 0 2.2528-13.35296l-0.74752-1.04448-348.16-430.08a10.24 10.24 0 0 0-14.848-1.1264l-0.88064 0.90112-122.88 143.36a10.24 10.24 0 0 0 14.6432 14.25408l0.90112-0.9216 114.87232-134.02112 340.43904 420.51584a10.24 10.24 0 0 0 14.39744 1.51552z"  horiz-adv-x="1024" />

    
    <glyph glyph-name="xiangyouyuanquan" unicode="&#59245;" d="M512 701.44c175.3088 0 317.44-142.1312 317.44-317.44 0-175.3088-142.1312-317.44-317.44-317.44-175.3088 0-317.44 142.1312-317.44 317.44 0 175.3088 142.1312 317.44 317.44 317.44z m0-20.48c-164.00384 0-296.96-132.95616-296.96-296.96s132.95616-296.96 296.96-296.96 296.96 132.95616 296.96 296.96-132.95616 296.96-296.96 296.96z m-35.3792-175.74912l1.024-0.77824 133.12-112.61952a10.24 10.24 0 0 0 0.9216-14.76608l-0.91136-0.86016-133.12-112.66048a10.24 10.24 0 0 0-14.16192 14.7456l0.93184 0.88064 123.87328 104.8576-123.87328 104.79616a10.24 10.24 0 0 0-1.97632 13.39392l0.77824 1.024a10.24 10.24 0 0 0 13.39392 1.98656z"  horiz-adv-x="1024" />

    
    <glyph glyph-name="yasuo2" unicode="&#59246;" d="M683.48928 472.71936a10.24 10.24 0 0 0 0.06144-13.53728l-0.91136-0.9216L610.59072 394.24H819.2a10.24 10.24 0 0 0 1.19808-20.40832L819.2 373.76H610.59072l72.04864-64.03072a10.24 10.24 0 0 0 1.64864-13.43488l-0.79872-1.024a10.24 10.24 0 0 0-13.43488-1.6384l-1.024 0.79872-92.16 81.92-0.1536 0.13312-0.6144 0.6144 0.768-0.74752a10.36288 10.36288 0 0 0-2.58048 3.54304 10.28096 10.28096 0 0 0 1.66912 10.84416l0.14336 0.1536c0.19456 0.21504 0.39936 0.43008 0.6144 0.62464l0.1536 0.13312 92.16 81.92a10.24 10.24 0 0 0 14.45888-0.84992z m-330.61888 2.29376l1.0752-0.64512 1.024-0.79872 92.13952-81.92 0.1536-0.13312 0.6144-0.6144-0.768 0.74752a10.36288 10.36288 0 0 0 2.58048-3.54304 10.28096 10.28096 0 0 0-1.66912-10.84416l-0.14336-0.1536c-0.19456-0.21504-0.39936-0.43008-0.6144-0.62464l-0.1536-0.13312-92.14976-81.92a10.24 10.24 0 0 0-14.51008 14.3872l0.91136 0.9216L413.36832 373.76H204.8a10.24 10.24 0 0 0-1.19808 20.40832L204.8 394.24h208.56832l-72.00768 64.03072a10.24 10.24 0 0 0-1.6384 13.43488l0.78848 1.024a10.24 10.24 0 0 0 12.35968 2.28352z"  horiz-adv-x="1024" />

    
    <glyph glyph-name="shangchuan1" unicode="&#59247;" d="M430.08 424.96a10.24 10.24 0 0 0 1.19808-20.40832L430.08 404.48h-92.16v-317.44h348.16V404.48h-92.16a10.24 10.24 0 0 0-10.16832 9.04192L583.68 414.72a10.24 10.24 0 0 0 9.04192 10.16832L593.92 424.96h102.4a10.24 10.24 0 0 0 10.16832-9.04192L706.56 414.72v-337.92a10.24 10.24 0 0 0-9.04192-10.16832L696.32 66.56H327.68a10.24 10.24 0 0 0-10.16832 9.04192L317.44 76.8V414.72a10.24 10.24 0 0 0 9.04192 10.16832L327.68 424.96h102.4z m81.92 266.24l0.768-0.03072 1.20832-0.16384 1.15712-0.29696 1.09568-0.4096 1.00352-0.53248 0.96256-0.64512 0.89088-0.768 0.59392-0.6144 112.77312-133.28384a10.24 10.24 0 0 0-14.7456-14.16192l-0.88064 0.93184L522.24 653.01504V261.12a10.24 10.24 0 0 0-20.40832-1.19808L501.76 261.12V653.01504l-94.58688-111.79008a10.24 10.24 0 0 0-13.39392-1.96608l-1.024 0.768a10.24 10.24 0 0 0-1.97632 13.39392l0.768 1.024L504.32 687.73888l-0.13312-0.1536c0.34816 0.41984 0.73728 0.79872 1.1264 1.14688l0.89088 0.68608 1.04448 0.62464 1.03424 0.47104 1.08544 0.3584 1.10592 0.22528 0.63488 0.07168L512 691.2z"  horiz-adv-x="1024" />

    
    <glyph glyph-name="chilun5" unicode="&#59248;" d="M441.1392 690.4832l0.96256-1.5872 26.58304-47.91296 0.4608-0.06144c13.4144-1.92512 26.58304-5.29408 39.28064-10.0352l0.57344-0.22528 46.44864 27.8528a24.3712 24.3712 0 0 0 28.416-2.39616l1.35168-1.25952 54.272-54.272a24.3712 24.3712 0 0 0 4.56704-28.13952l-0.90112-1.62816-26.6752-44.43136 0.1024-0.24576c5.03808-12.1856 8.76544-24.8832 11.14112-37.84704l0.98304-5.9392 44.82048-24.8832a24.36096 24.36096 0 0 0 12.14464-25.856l-0.41984-1.80224L681.19552 414.72h8.2944a20.1728 20.1728 0 0 0 19.10784-13.69088l0.4608-1.55648 8.46848-33.88416 3.30752-1.45408c6.84032-3.15392 13.39392-6.8608 19.61984-11.10016l3.03104-2.1504 33.23904 9.50272a20.1728 20.1728 0 0 0 22.09792-7.84384l0.9216-1.45408 27.00288-46.76608a20.1728 20.1728 0 0 0-3.45088-24.576l-24.2176-23.41888 0.4096-3.98336c0.67584-7.7824 0.67584-15.62624 0-23.40864l-0.4096-3.97312 24.22784-23.3984c6.2464-6.03136 7.8848-15.31904 4.2496-23.06048l-0.79872-1.52576-27.00288-46.76608a20.1728 20.1728 0 0 0-23.01952-9.29792l-33.23904 9.51296-3.03104-2.16064a135.5776 135.5776 0 0 0-19.61984-11.10016l-3.30752-1.44384-8.46848-33.8944a20.1728 20.1728 0 0 0-17.95072-15.2064l-1.61792-0.06144H635.4944a20.1728 20.1728 0 0 0-19.57888 15.28832l-8.89856 35.54304-3.75808 1.80224a135.71072 135.71072 0 0 0-16.13824 9.56416l-3.2768 2.3552-35.61472-10.19904a20.1728 20.1728 0 0 0-22.08768 7.85408l-0.9216 1.45408-27.00288 46.76608a20.1728 20.1728 0 0 0 3.45088 24.576l26.7264 25.86624-62.24896-16.68096a24.3712 24.3712 0 0 0-26.65472 10.1376l-0.96256 1.57696-24.87296 44.86144-0.36864 0.04096a188.61056 188.61056 0 0 0-38.17472 10.00448l-5.49888 2.18112-44.4416-26.68544a24.3712 24.3712 0 0 0-28.40576 2.41664l-1.35168 1.25952-54.272 54.272a24.3712 24.3712 0 0 0-4.5568 28.13952l0.90112 1.62816 27.8528 46.42816-0.21504 0.5632A188.71296 188.71296 0 0 0 256 421.09952l-0.98304 6.1952-47.90272 26.59328a24.36096 24.36096 0 0 0-12.14464 25.856l0.41984 1.80224 19.8656 74.17856a24.36096 24.36096 0 0 0 22.20032 18.0224l1.7408 0.03072 55.97184-0.94208 0.2048 0.26624a185.12896 185.12896 0 0 0 23.23456 23.93088l4.53632 3.77856-0.94208 55.9616a24.3712 24.3712 0 0 0 16.384 23.43936l1.66912 0.512 74.24 19.88608a24.3712 24.3712 0 0 0 26.65472-10.1376zM689.2544 394.24L667.93472 394.24h-0.48128l-31.72352 0.01024-10.0352-40.16128a10.24 10.24 0 0 0-4.89472-6.43072l-1.08544-0.53248c-9.82016-4.096-19.02592-9.55392-27.3408-16.18944a10.24 10.24 0 0 0-9.216-1.8432l-40.30464 11.54048L516.096 294.2976l30.67904-29.71648a10.24 10.24 0 0 0 3.11296-7.5264l-0.1024-1.20832a112.71168 112.71168 0 0 1 0-30.4128 10.24 10.24 0 0 0-3.0208-8.74496l-30.68928-29.66528 26.74688-46.336 40.32512 11.52a10.24 10.24 0 0 0 8.192-1.1264l1.01376-0.7168a115.23072 115.23072 0 0 1 27.35104-16.20992 10.24 10.24 0 0 0 5.98016-6.9632l10.0352-40.1408h53.53472l9.6768 38.66624a10.24 10.24 0 0 0 5.14048 6.5536l1.13664 0.52224a115.0976 115.0976 0 0 1 29.91104 16.92672 10.24 10.24 0 0 0 9.13408 1.78176l37.87776-10.82368 26.75712 46.336-27.7504 26.80832a10.24 10.24 0 0 0-3.11296 7.70048l0.1024 1.2288c1.85344 11.85792 1.85344 23.92064 0 35.76832a10.24 10.24 0 0 0 3.01056 8.93952l27.74016 26.83904-26.74688 46.34624-37.888-10.8544a10.24 10.24 0 0 0-8.13056 1.09568l-1.00352 0.69632a115.0976 115.0976 0 0 1-29.91104 16.92672 10.24 10.24 0 0 0-6.27712 7.07584l-9.6768 38.66624zM665.6 312.32a71.68 71.68 0 1 0 0-143.36 71.68 71.68 0 0 0 0 143.36z m0-20.48a51.2 51.2 0 1 1 0-102.4 51.2 51.2 0 0 1 0 102.4zM420.53632 680.96l-0.73728-0.13312-74.24-19.88608a3.88096 3.88096 0 0 1-2.816-3.072l-0.06144-0.74752 1.024-61.06112a10.24 10.24 0 0 0-4.0448-8.32512 164.64896 164.64896 0 0 1-31.41632-31.41632 10.24 10.24 0 0 0-7.10656-3.9936l-1.21856-0.0512-61.06112 1.024a3.8912 3.8912 0 0 1-3.55328-2.17088l-0.26624-0.70656-19.8656-74.19904c-0.4096-1.4848 0.1024-3.03104 1.23904-3.9936l0.62464-0.43008 52.44928-29.11232a10.24 10.24 0 0 0 5.21216-7.80288c1.7408-15.44192 5.60128-30.57664 11.48928-44.9536a10.24 10.24 0 0 0-0.06144-7.92576l-0.63488-1.2288-30.45376-50.7392a3.8912 3.8912 0 0 1 0.04096-4.05504l0.54272-0.68608 54.272-54.272a3.8912 3.8912 0 0 1 3.95264-0.95232l0.78848 0.3584 48.9472 29.36832a10.24 10.24 0 0 0 9.45152 0.57344 168.13056 168.13056 0 0 1 48.3328-13.43488 10.24 10.24 0 0 0 7.0656-4.16768l0.65536-1.03424 27.35104-49.33632a3.8912 3.8912 0 0 1 3.66592-1.98656l0.73728 0.12288 67.6864 18.1248 0.06144 0.98304 0.31744 3.7376-27.21792 26.35776a20.1728 20.1728 0 0 0-4.2496 23.06048l0.79872 1.52576 27.00288 46.77632a20.1728 20.1728 0 0 0 23.00928 9.28768l35.61472-10.17856 3.2768 2.33472c5.15072 3.55328 10.5472 6.7584 16.13824 9.55392l3.75808 1.82272 8.88832 35.51232a20.1728 20.1728 0 0 0 17.95072 15.22688L635.4944 414.72h24.50432l5.4784 20.41856a3.88096 3.88096 0 0 1-1.24928 3.9936l-0.62464 0.43008-49.3056 27.37152a10.24 10.24 0 0 0-5.20192 7.71072 168.07936 168.07936 0 0 1-13.43488 48.3328 10.24 10.24 0 0 0 0 8.3456l0.57344 1.10592 29.35808 48.92672a3.88096 3.88096 0 0 1-0.04096 4.06528l-0.54272 0.68608-54.272 54.272a3.88096 3.88096 0 0 1-3.95264 0.94208l-0.79872-0.36864-50.76992-30.45376a10.24 10.24 0 0 0-9.14432-0.68608 168.26368 168.26368 0 0 1-44.97408 11.48928 10.24 10.24 0 0 0-7.14752 4.16768l-0.65536 1.04448-29.09184 52.44928a3.88096 3.88096 0 0 1-3.66592 1.98656z m-52.6336-152.87296c39.99744 39.9872 104.83712 39.9872 144.82432 0 39.9872-39.9872 39.9872-104.82688 0-144.81408-39.9872-39.9872-104.82688-39.9872-144.81408 0-39.9872 39.9872-39.9872 104.82688 0 144.81408z m130.34496-14.47936a81.92 81.92 0 1 1-115.85536-115.85536 81.92 81.92 0 0 1 115.85536 115.85536z"  horiz-adv-x="1024" />

    
    <glyph glyph-name="shuipingfenge" unicode="&#59249;" d="M563.2 158.72a10.24 10.24 0 0 0-20.40832-1.19808L542.72 158.72V609.28a10.24 10.24 0 0 0 20.40832 1.19808L563.2 609.28l-0.01024-215.04h218.8288l-72.01792 64.03072a10.24 10.24 0 0 0-1.6384 13.43488l0.78848 1.024a10.24 10.24 0 0 0 12.35968 2.28352l1.0752-0.64512 1.024-0.79872 92.16-81.92c0.36864-0.32768 0.70656-0.67584 1.024-1.04448l0.7168-0.9728 0.62464-1.08544 0.2048-0.44032c1.14688-2.6112 1.14688-5.60128 0-8.21248l-0.47104-0.95232-0.59392-0.9216-0.74752-0.9216-0.768-0.74752-92.16-81.92a10.24 10.24 0 0 0-14.51008 14.3872l0.91136 0.9216L782.01856 373.76h-218.8288L563.2 158.72z m-92.16 460.8a10.24 10.24 0 0 0 10.16832-9.04192L481.28 609.28v-450.56a10.24 10.24 0 0 0-20.40832-1.19808L460.8 158.72l-0.01024 215.04H241.9712l72.02816-64.03072a10.24 10.24 0 0 0 1.6384-13.43488l-0.78848-1.024a10.24 10.24 0 0 0-13.43488-1.6384l-1.024 0.79872-92.16 81.92a10.36288 10.36288 0 0 0-1.024 1.04448l-0.7168 0.9728-0.62464 1.08544-0.2048 0.44032a10.28096 10.28096 0 0 0 0 8.21248l0.47104 0.95232 0.59392 0.9216 0.74752 0.9216 0.768 0.74752 92.16 81.92a10.24 10.24 0 0 0 14.51008-14.3872l-0.91136-0.9216L241.9712 394.24h218.81856L460.8 609.28a10.24 10.24 0 0 0 10.24 10.24z"  horiz-adv-x="1024" />

    
    <glyph glyph-name="suiji1" unicode="&#59250;" d="M548.89472 340.97152l0.95232-0.8192 0.8704-0.95232L629.5552 240.64h164.92544l-64.44032 64.44032a10.24 10.24 0 0 0-0.84992 13.5168l0.84992 0.96256a10.24 10.24 0 0 0 13.5168 0.84992l0.96256-0.84992 81.92-81.92c0.29696-0.28672 0.5632-0.60416 0.8192-0.9216l-0.8192 0.9216a10.32192 10.32192 0 0 0 2.92864-6.0416l0.03072-0.3072 0.03072-0.5632L829.44 230.4v-0.33792l-0.04096-0.53248L829.44 230.4a10.32192 10.32192 0 0 0-2.2528-6.4l-0.74752-0.83968-81.92-81.92a10.24 10.24 0 0 0-15.32928 13.5168l0.84992 0.96256L794.46016 220.16H624.64a10.24 10.24 0 0 0-7.10656 2.8672l-0.89088 0.9728-81.92 102.4a10.24 10.24 0 0 0 14.17216 14.57152z m194.6624 286.63808l0.96256-0.84992 81.92-81.92c0.29696-0.28672 0.5632-0.60416 0.8192-0.9216l-0.8192 0.9216a10.32192 10.32192 0 0 0 2.99008-6.912L829.44 537.6v-0.33792l-0.04096-0.53248L829.44 537.6a10.32192 10.32192 0 0 0-2.2528-6.4l-0.74752-0.83968-81.92-81.92a10.24 10.24 0 0 0-15.32928 13.5168l0.84992 0.96256L794.4704 527.36H629.54496L386.87744 224a10.24 10.24 0 0 0-6.67648-3.75808L378.88 220.16H215.04a10.24 10.24 0 0 0-1.19808 20.40832L215.04 240.64h158.91456l242.688 303.36a10.24 10.24 0 0 0 6.67648 3.75808L624.64 547.84h169.8304l-64.43008 64.44032a10.24 10.24 0 0 0-0.84992 13.5168l0.84992 0.96256a10.24 10.24 0 0 0 13.5168 0.84992zM378.88 547.84a10.24 10.24 0 0 0 7.10656-2.8672l0.89088-0.9728 90.112-112.64a10.24 10.24 0 0 0-15.12448-13.75232l-0.8704 0.95232L373.9648 527.36H215.04a10.24 10.24 0 0 0-10.16832 9.04192L204.8 537.6a10.24 10.24 0 0 0 9.04192 10.16832L215.04 547.84h163.84z"  horiz-adv-x="1024" />

    
    <glyph glyph-name="zhankai2" unicode="&#59251;" d="M819.2 312.32a10.24 10.24 0 0 0 10.24-10.24v-225.28a10.24 10.24 0 0 0-10.24-10.24H593.92a10.24 10.24 0 0 0-10.24 10.24V302.08a10.24 10.24 0 0 0 10.24 10.24z m0 389.12a10.24 10.24 0 0 0 10.16832-9.04192L829.44 691.2v-266.24a10.24 10.24 0 0 0-20.40832-1.19808L808.96 424.96V680.96H215.04v-593.92h256a10.24 10.24 0 0 0 10.16832-9.04192L481.28 76.8a10.24 10.24 0 0 0-9.04192-10.16832L471.04 66.56H204.8a10.24 10.24 0 0 0-10.16832 9.04192L194.56 76.8V691.2a10.24 10.24 0 0 0 9.04192 10.16832L204.8 701.44h614.4z m-10.24-409.6H604.16v-204.8h204.8V291.84zM471.04 599.04a10.24 10.24 0 0 0 1.19808-20.40832L471.04 578.56H331.93984l207.872-207.68768a10.24 10.24 0 0 0-13.50656-15.33952l-0.96256 0.86016L317.44 564.10112V424.96a10.24 10.24 0 0 0-9.04192-10.16832L307.2 414.72a10.24 10.24 0 0 0-10.16832 9.04192L296.96 424.96V588.8l0.03072 0.77824 0.17408 1.24928 0.3072 1.16736 0.32768 0.8704 0.3072 0.63488 0.3072 0.57344 0.7168 1.04448 0.8192 0.9216c0.4096 0.4096 0.83968 0.768 1.29024 1.08544l0.9728 0.6144 1.1264 0.54272 1.16736 0.39936 0.90112 0.2048 0.59392 0.08192L307.2 599.04h163.84z"  horiz-adv-x="1024" />

    
    <glyph glyph-name="dunpai" unicode="&#59252;" d="M778.24 701.44H245.76a10.24 10.24 0 0 1-10.24-10.24v-225.93536c3.66592-175.18592 110.67392-331.35616 272.52736-397.9264a10.24 10.24 0 0 1 7.7824 0A440.07424 440.07424 0 0 1 788.48 465.03936V691.2a10.24 10.24 0 0 1-10.24 10.24z m-10.24-20.48v-215.69536l-0.13312-4.99712c-5.3248-161.28-102.94272-305.2544-250.624-370.08384l-5.30432-2.28352-0.7168 0.3072A419.5328 419.5328 0 0 0 256 465.46944V680.96h512z"  horiz-adv-x="1024" />

    
    <glyph glyph-name="jinzhiquxiaofangxing" unicode="&#59253;" d="M819.2 701.44a10.4448 10.4448 0 0 0 4.95616-1.28 8.99072 8.99072 0 0 0 1.36192-0.90112c0.64512-0.512 1.2288-1.09568 1.7408-1.7408l-0.8192 0.9216a10.32192 10.32192 0 0 0 2.88768-5.72416A10.20928 10.20928 0 0 0 829.44 691.2l-0.04096 0.88064 0.03072-0.55296L829.44 691.2v-614.4a10.42432 10.42432 0 0 0-1.49504-5.3248 10.5984 10.5984 0 0 0-2.42688-2.73408l0.9216 0.8192a10.32192 10.32192 0 0 0-5.72416-2.88768A10.20928 10.20928 0 0 0 819.2 66.56l0.8704 0.04096a10.30144 10.30144 0 0 0-0.53248-0.03072L819.2 66.56H204.8a10.42432 10.42432 0 0 0-5.3248 1.49504 10.5984 10.5984 0 0 0-2.73408 2.42688l0.8192-0.9216a10.32192 10.32192 0 0 0-2.88768 5.72416A10.20928 10.20928 0 0 0 194.56 76.8l0.04096-0.9216a10.30144 10.30144 0 0 0-0.04096 0.7168V691.2a10.4448 10.4448 0 0 0 1.28 4.95616 8.99072 8.99072 0 0 0 0.90112 1.36192c0.512 0.6656 1.1264 1.25952 1.792 1.78176l-0.9728-0.86016a10.31168 10.31168 0 0 0 6.144 2.93888L204.8 701.44z m-10.24-34.95936L229.51936 87.04h564.95104L575.80544 305.7152a10.24 10.24 0 0 0 12.47232 16.04608l1.04448-0.7168 0.96256-0.84992L808.96 101.5296V666.48064zM794.46016 680.96H229.5296l213.56544-213.57568a10.24 10.24 0 0 0-13.5168-15.32928l-0.96256 0.84992L215.04 666.4704v-564.93056L794.46016 680.96z"  horiz-adv-x="1024" />

    
    <glyph glyph-name="zhankaichuangkou" unicode="&#59254;" d="M245.76 353.28a10.24 10.24 0 0 0 10.16832-9.04192L256 343.04v-133.12h174.08a10.24 10.24 0 0 0 10.16832-9.04192L440.32 199.68a10.24 10.24 0 0 0-9.04192-10.16832L430.08 189.44H245.76a10.24 10.24 0 0 0-10.16832 9.04192L235.52 199.68V343.04a10.24 10.24 0 0 0 10.24 10.24z m532.48 0a10.24 10.24 0 0 0 10.16832-9.04192L788.48 343.04v-143.36a10.24 10.24 0 0 0-9.04192-10.16832L778.24 189.44H593.92a10.24 10.24 0 0 0-1.19808 20.40832L593.92 209.92h174.08V343.04a10.24 10.24 0 0 0 9.04192 10.16832L778.24 353.28z m-81.92 143.36a10.24 10.24 0 0 0 10.24-10.24v-204.8a10.24 10.24 0 0 0-10.24-10.24H327.68a10.24 10.24 0 0 0-10.24 10.24V486.4a10.24 10.24 0 0 0 10.24 10.24z m-10.24-20.48H337.92v-184.32h348.16V476.16zM440.32 578.56a10.24 10.24 0 0 0 1.19808-20.40832L440.32 558.08H256v-122.88a10.24 10.24 0 0 0-9.04192-10.16832L245.76 424.96a10.24 10.24 0 0 0-10.16832 9.04192L235.52 435.2V568.32a10.24 10.24 0 0 0 9.04192 10.16832L245.76 578.56h194.56z m337.92 0a10.24 10.24 0 0 0 10.16832-9.04192L788.48 568.32v-133.12a10.24 10.24 0 0 0-20.40832-1.19808L768 435.2V558.08H583.68a10.24 10.24 0 0 0-10.16832 9.04192L573.44 568.32a10.24 10.24 0 0 0 9.04192 10.16832L583.68 578.56h194.56z"  horiz-adv-x="1024" />

    
    <glyph glyph-name="xiangzuo" unicode="&#59255;" d="M577.024 524.83072a10.24 10.24 0 0 0 14.2336-14.6432l-0.9216-0.90112L456.05888 394.24l134.2976-115.16928a10.24 10.24 0 0 0 1.88416-13.4144l-0.77824-1.024a10.24 10.24 0 0 0-13.4144-1.88416l-1.024 0.77824-143.36 122.94144a10.24 10.24 0 0 0-0.89088 14.6944l0.89088 0.84992 143.36 122.81856z"  horiz-adv-x="1024" />

    
    <glyph glyph-name="xiangzuoyuanquan" unicode="&#59256;" d="M512 701.44c175.3088 0 317.44-142.1312 317.44-317.44 0-175.3088-142.1312-317.44-317.44-317.44-175.3088 0-317.44 142.1312-317.44 317.44 0 175.3088 142.1312 317.44 317.44 317.44z m0-20.48c-164.00384 0-296.96-132.95616-296.96-296.96s132.95616-296.96 296.96-296.96 296.96 132.95616 296.96 296.96-132.95616 296.96-296.96 296.96z m48.78336-177.72544a10.24 10.24 0 0 0-0.28672-13.54752l-0.9216-0.89088-123.88352-104.74496 123.88352-104.89856a10.24 10.24 0 0 0 1.96608-13.39392l-0.768-1.03424a10.24 10.24 0 0 0-13.39392-1.96608l-1.03424 0.768-133.12 112.70144a10.24 10.24 0 0 0-0.90112 14.77632l0.90112 0.86016 133.12 112.57856a10.24 10.24 0 0 0 14.4384-1.20832z"  horiz-adv-x="1024" />

    
    <glyph glyph-name="shuipingyidong" unicode="&#59257;" d="M512 660.48a10.24 10.24 0 0 0 10.16832-9.04192L522.24 650.24l-0.01024-256h259.7888l-72.01792 64.03072a10.24 10.24 0 0 0-1.6384 13.43488l0.78848 1.024a10.24 10.24 0 0 0 12.35968 2.28352l1.0752-0.64512 1.024-0.79872 92.16-81.92c0.36864-0.32768 0.70656-0.67584 1.024-1.04448l0.7168-0.9728 0.62464-1.08544 0.2048-0.44032c1.14688-2.6112 1.14688-5.60128 0-8.21248l-0.47104-0.95232-0.59392-0.9216-0.74752-0.9216-0.768-0.74752-92.16-81.92a10.24 10.24 0 0 0-14.51008 14.3872l0.91136 0.9216L782.01856 373.76h-259.7888L522.24 117.76a10.24 10.24 0 0 0-20.40832-1.19808L501.76 117.76l-0.01024 256H241.9712l72.02816-64.03072a10.24 10.24 0 0 0 1.6384-13.43488l-0.78848-1.024a10.24 10.24 0 0 0-13.43488-1.6384l-1.024 0.79872-92.16 81.92a10.36288 10.36288 0 0 0-1.024 1.04448l-0.7168 0.9728-0.62464 1.08544-0.2048 0.44032a10.28096 10.28096 0 0 0 0 8.21248l0.47104 0.95232 0.59392 0.9216 0.74752 0.9216 0.768 0.74752 92.16 81.92a10.24 10.24 0 0 0 14.51008-14.3872l-0.91136-0.9216L241.9712 394.24h259.77856L501.76 650.24a10.24 10.24 0 0 0 10.24 10.24z"  horiz-adv-x="1024" />

    
    <glyph glyph-name="zhongzuo1" unicode="&#59258;" d="M681.84064 607.3856l1.00352-0.8192 133.35552-122.88a10.24 10.24 0 0 0 0.8704-14.14144l-0.8704-0.9216-133.35552-122.88a10.24 10.24 0 0 0-14.77632 14.1312l0.89088 0.93184L783.03232 465.92H215.04v-286.72h604.16a10.24 10.24 0 0 0 10.16832-9.04192L829.44 168.96a10.24 10.24 0 0 0-9.04192-10.16832L819.2 158.72H204.8a10.24 10.24 0 0 0-10.16832 9.04192L194.56 168.96V476.16a10.24 10.24 0 0 0 9.04192 10.16832L204.8 486.4h578.23232l-114.0736 105.1136a10.24 10.24 0 0 0-1.40288 13.4656l0.8192 1.00352a10.24 10.24 0 0 0 13.4656 1.40288z"  horiz-adv-x="1024" />

    
    <glyph glyph-name="xiangyouxuanzhuan" unicode="&#59259;" d="M558.10048 639.65184c117.68832-34.0992 197.44768-140.75904 199.63904-260.4544l63.24224 92.49792a10.24 10.24 0 0 0 17.57184-10.4448l-0.65536-1.10592-83.64032-122.33728-0.17408-0.24576a10.24 10.24 0 0 0-0.45056-0.57344l0.6144 0.8192a10.36288 10.36288 0 0 0-1.88416-2.08896l-0.34816-0.27648a8.192 8.192 0 0 0-0.62464-0.44032l-0.3072-0.18432a7.89504 7.89504 0 0 0-1.04448-0.55296 9.3184 9.3184 0 0 0-2.33472-0.74752l-0.32768-0.0512a8.88832 8.88832 0 0 0-1.88416-0.12288 9.96352 9.96352 0 0 0-0.86016 0.07168l-0.22528 0.02048a10.21952 10.21952 0 0 0-0.70656 0.12288l0.93184-0.14336a10.3424 10.3424 0 0 0-4.8128 1.85344l-0.256 0.19456a10.25024 10.25024 0 0 0-0.45056 0.36864l-0.24576 0.2048-110.77632 101.86752a10.24 10.24 0 0 0 12.86144 15.88224l1.00352-0.80896 95.20128-87.53152c3.93216 116.18304-71.41376 221.696-184.75008 254.53568-120.03328 34.7648-247.63392-22.14912-301.96736-134.68672-54.3232-112.5376-19.52768-247.84896 82.36032-320.2048 101.888-72.36608 241.11104-60.66176 329.472 27.70944a10.24 10.24 0 0 0 14.47936-14.47936c-95.42656-95.4368-245.78048-108.0832-355.80928-29.93152-110.0288 78.14144-147.61984 224.27648-88.94464 345.8048 58.6752 121.5488 196.47488 183.00928 326.10304 145.4592z"  horiz-adv-x="1024" />

    
    <glyph glyph-name="youjiantoufangxing" unicode="&#59260;" d="M819.2 701.44a10.24 10.24 0 0 0 10.24-10.24v-614.4a10.24 10.24 0 0 0-10.24-10.24H204.8a10.24 10.24 0 0 0-10.24 10.24V691.2a10.24 10.24 0 0 0 10.24 10.24z m-10.24-20.48H215.04v-593.92h593.92V680.96zM557.44512 505.856l1.09568-0.62464 1.024-0.77824 133.12-112.61952c0.78848-0.65536 1.4336-1.40288 1.96608-2.21184l0.58368-1.00352 0.55296-1.35168 0.21504-0.70656 0.16384-0.78848 0.13312-1.16736v-1.39264l-0.1536-1.09568-0.27648-1.1264-0.28672-0.8192-0.6144-1.24928a10.15808 10.15808 0 0 0-2.58048-2.99008l-132.8128-112.384a10.24 10.24 0 0 0-14.16192 14.7456l0.93184 0.88064L658.08384 373.76H327.68a10.24 10.24 0 0 0-1.19808 20.40832L327.68 394.24h330.47552l-111.81056 94.58688a10.24 10.24 0 0 0-1.97632 13.39392l0.77824 1.024a10.24 10.24 0 0 0 12.29824 2.60096z"  horiz-adv-x="1024" />

    
    <glyph glyph-name="zuidahuachuangkou" unicode="&#59261;" d="M430.10048 312.32a10.24 10.24 0 0 0 10.24-10.24v-225.28a10.24 10.24 0 0 0-10.24-10.24h-225.28a10.24 10.24 0 0 0-10.24 10.24V302.08a10.24 10.24 0 0 0 10.24 10.24zM819.2 701.44a10.24 10.24 0 0 0 10.16832-9.04192L829.44 691.2v-614.4a10.24 10.24 0 0 0-9.04192-10.16832L819.2 66.56H552.96a10.24 10.24 0 0 0-1.19808 20.40832L552.96 87.04h256V680.96H215.04v-256a10.24 10.24 0 0 0-9.04192-10.16832L204.8 414.72a10.24 10.24 0 0 0-10.16832 9.04192L194.56 424.96V691.2a10.24 10.24 0 0 0 9.04192 10.16832L204.8 701.44h614.4zM419.85024 291.84H215.06048v-204.8h204.78976V291.84zM716.8 599.04l0.768-0.03072 1.29024-0.17408 1.13664-0.3072 1.13664-0.45056 1.00352-0.53248 0.98304-0.68608 0.9216-0.8192c0.36864-0.3584 0.69632-0.74752 0.99328-1.14688l0.72704-1.1264 0.55296-1.16736 0.3584-1.0752 0.3072-1.536L727.04 588.8v-163.84a10.24 10.24 0 0 0-20.40832-1.19808L706.56 424.96V564.08064L498.75968 356.28032a10.24 10.24 0 0 0-15.32928 13.5168l0.84992 0.96256L692.06016 578.56H552.96a10.24 10.24 0 0 0-10.16832 9.04192L542.72 588.8a10.24 10.24 0 0 0 9.04192 10.16832L552.96 599.04h163.84z"  horiz-adv-x="1024" />

    
    <glyph glyph-name="xinxi" unicode="&#59262;" d="M512 455.68a10.24 10.24 0 0 0 10.16832-9.04192L522.24 445.44v-256h71.68a10.24 10.24 0 0 0 1.19808-20.40832L593.92 168.96H430.08a10.24 10.24 0 0 0-1.19808 20.40832L430.08 189.44h71.68V435.2h-61.44a10.24 10.24 0 0 0-10.16832 9.04192L430.08 445.44a10.24 10.24 0 0 0 9.04192 10.16832L440.32 455.68h71.68z m0 143.36a40.96 40.96 0 1 0 0-81.92 40.96 40.96 0 0 0 0 81.92z m0-20.48a20.48 20.48 0 1 1 0-40.96 20.48 20.48 0 0 1 0 40.96z"  horiz-adv-x="1024" />

    
    <glyph glyph-name="meitineirong" unicode="&#59263;" d="M419.84 353.28a10.24 10.24 0 0 0 10.16832-9.04192L430.08 343.04v-204.8a10.24 10.24 0 0 0-9.04192-10.16832L419.84 128H215.04a10.24 10.24 0 0 0-10.16832 9.04192L204.8 138.24V343.04a10.24 10.24 0 0 0 9.04192 10.16832L215.04 353.28h204.8z m-10.24-20.48H225.28v-184.32h184.32V332.8z m399.36-122.88a10.24 10.24 0 0 0 1.19808-20.40832L808.96 189.44H522.24a10.24 10.24 0 0 0-1.19808 20.40832L522.24 209.92h286.72z m0 122.88a10.24 10.24 0 0 0 1.19808-20.40832L808.96 312.32H522.24a10.24 10.24 0 0 0-1.19808 20.40832L522.24 332.8h286.72zM419.84 640a10.24 10.24 0 0 0 10.16832-9.04192L430.08 629.76v-204.8a10.24 10.24 0 0 0-9.04192-10.16832L419.84 414.72H215.04a10.24 10.24 0 0 0-10.16832 9.04192L204.8 424.96V629.76a10.24 10.24 0 0 0 9.04192 10.16832L215.04 640h204.8z m389.12-184.32a10.24 10.24 0 0 0 1.19808-20.40832L808.96 435.2H522.24a10.24 10.24 0 0 0-1.19808 20.40832L522.24 455.68h286.72zM409.6 619.52H225.28v-184.32h184.32V619.52z m399.36-40.96a10.24 10.24 0 0 0 1.19808-20.40832L808.96 558.08H522.24a10.24 10.24 0 0 0-1.19808 20.40832L522.24 578.56h286.72z"  horiz-adv-x="1024" />

    
    <glyph glyph-name="chilun2" unicode="&#59264;" d="M552.96 701.44a20.48 20.48 0 0 0 20.48-20.48v-59.0336l3.04128-0.78848a244.29568 244.29568 0 0 0 57.61024-23.8592l2.68288-1.59744 41.76896 41.74848a20.48 20.48 0 0 0 27.648 1.19808l1.31072-1.19808 57.92768-57.93792a20.48 20.48 0 0 0 0-28.95872l-41.75872-41.75872 1.59744-2.69312a244.29568 244.29568 0 0 0 23.87968-57.6l0.77824-3.04128H808.96a20.48 20.48 0 0 0 20.4288-18.944L829.44 424.96v-81.92a20.48 20.48 0 0 0-20.48-20.48h-59.0336l-0.77824-3.04128a244.28544 244.28544 0 0 0-23.88992-57.61024l-1.59744-2.68288 41.75872-41.76896a20.48 20.48 0 0 0 1.19808-27.648l-1.19808-1.31072-57.92768-57.92768a20.48 20.48 0 0 0-28.95872 0l-41.76896 41.75872-2.68288-1.59744a244.3264 244.3264 0 0 0-57.6-23.87968l-3.04128-0.77824V87.04a20.48 20.48 0 0 0-18.944-20.4288L552.96 66.56h-81.92a20.48 20.48 0 0 0-20.48 20.48v59.02336l-3.04128 0.78848a244.3264 244.3264 0 0 0-57.61024 23.87968l-2.69312 1.59744-41.75872-41.75872a20.48 20.48 0 0 0-27.648-1.19808l-1.31072 1.19808-57.92768 57.92768a20.48 20.48 0 0 0 0 28.95872l41.75872 41.7792-1.5872 2.68288a244.28544 244.28544 0 0 0-23.87968 57.6L274.0736 322.56H215.04a20.48 20.48 0 0 0-20.4288 18.944L194.56 343.04v81.92a20.48 20.48 0 0 0 20.48 20.48h59.02336l0.79872 3.04128a244.29568 244.29568 0 0 0 23.8592 57.61024l1.59744 2.69312-41.74848 41.75872a20.48 20.48 0 0 0-1.19808 27.648l1.19808 1.31072 57.92768 57.92768a20.48 20.48 0 0 0 28.95872 0l41.76896-41.75872 2.69312 1.5872a244.29568 244.29568 0 0 0 57.6 23.87968l3.04128 0.78848V680.96a20.48 20.48 0 0 0 18.944 20.4288L471.04 701.44z m0-20.48h-81.92v-67.09248a10.24 10.24 0 0 0-8.01792-9.99424 223.81568 223.81568 0 0 1-71.8336-29.77792 10.24 10.24 0 0 0-12.7488 1.39264l-47.4624 47.4624-57.91744-57.92768 47.44192-47.45216a10.24 10.24 0 0 0 2.01728-11.61216l-0.6144-1.1264a223.81568 223.81568 0 0 1-29.77792-71.84384 10.24 10.24 0 0 0-9.99424-8.02816H215.04v-81.92h67.09248a10.24 10.24 0 0 0 9.99424-8.01792 223.80544 223.80544 0 0 1 29.77792-71.8336 10.24 10.24 0 0 0-1.39264-12.7488l-47.45216-47.4624 57.91744-57.91744 47.45216 47.44192a10.24 10.24 0 0 0 11.61216 2.01728l1.1264-0.6144a223.8464 223.8464 0 0 1 71.85408-29.78816 10.24 10.24 0 0 0 8.01792-9.99424V87.04h81.92v67.08224a10.24 10.24 0 0 0 8.01792 9.99424 223.8464 223.8464 0 0 1 71.8336 29.77792 10.24 10.24 0 0 0 12.7488-1.39264l47.45216-47.45216 57.92768 57.92768-47.45216 47.45216a10.24 10.24 0 0 0-1.39264 12.7488 223.80544 223.80544 0 0 1 29.78816 71.84384 10.24 10.24 0 0 0 9.99424 8.01792H808.96v81.92h-67.08224a10.24 10.24 0 0 0-9.99424 8.01792 223.81568 223.81568 0 0 1-29.77792 71.8336 10.24 10.24 0 0 0 1.39264 12.7488l47.45216 47.45216-57.92768 57.93792-47.45216-47.45216a10.24 10.24 0 0 0-12.73856-1.39264 223.81568 223.81568 0 0 1-71.84384 29.76768 10.24 10.24 0 0 0-8.02816 9.99424V680.96z m-40.96-184.32c62.208 0 112.64-50.432 112.64-112.64s-50.432-112.64-112.64-112.64-112.64 50.432-112.64 112.64 50.432 112.64 112.64 112.64z m0-20.48a92.16 92.16 0 1 1 0-184.32 92.16 92.16 0 0 1 0 184.32z"  horiz-adv-x="1024" />

    
    <glyph glyph-name="zhankaiduijiaoxian2" unicode="&#59265;" d="M558.19264 351.8464l1.04448-0.7168 0.96256-0.84992L716.8 193.6896V291.84a10.24 10.24 0 0 0 9.04192 10.16832L727.04 302.08a10.24 10.24 0 0 0 10.16832-9.04192L737.28 291.84v-123.21792l-0.04096-0.53248L737.28 168.96a10.32192 10.32192 0 0 0-2.18112-6.31808c-0.512-0.64512-1.09568-1.2288-1.7408-1.7408l0.9216 0.8192a10.32192 10.32192 0 0 0-6.0416-2.92864l-0.32768-0.03072a10.30144 10.30144 0 0 0-0.53248-0.03072L727.04 158.72H604.16a10.24 10.24 0 0 0-1.19808 20.40832L604.16 179.2h98.1504L545.72032 335.80032a10.24 10.24 0 0 0 12.47232 16.04608zM419.84 609.28a10.24 10.24 0 0 0 1.19808-20.40832L419.84 588.8h-98.1504l156.59008-156.60032a10.24 10.24 0 0 0-13.5168-15.32928l-0.96256 0.84992L307.2 574.3104V476.16a10.24 10.24 0 0 0-9.04192-10.16832L296.96 465.92a10.24 10.24 0 0 0-10.16832 9.04192L286.72 476.16V599.22432c0 0.24576 0.02048 0.49152 0.04096 0.72704L286.72 599.04a10.32192 10.32192 0 0 0 2.18112 6.31808c0.512 0.6656 1.1264 1.25952 1.792 1.78176l-0.9728-0.86016a10.31168 10.31168 0 0 0 6.144 2.93888L296.96 609.28h122.88z"  horiz-adv-x="1024" />

    
    <glyph glyph-name="zhankaiduijiaoxian1" unicode="&#59266;" d="M478.27968 350.27968a10.24 10.24 0 0 0 0.84992-13.5168l-0.84992-0.96256L321.67936 179.2H419.84a10.24 10.24 0 0 0 10.16832-9.04192L430.08 168.96a10.24 10.24 0 0 0-9.04192-10.16832L419.84 158.72H296.63232l-0.55296 0.04096L296.96 158.72a10.32192 10.32192 0 0 0-6.31808 2.18112 10.32192 10.32192 0 0 0-1.7408 1.7408l0.8192-0.9216a10.32192 10.32192 0 0 0-2.92864 6.0416l-0.03072 0.28672a10.30144 10.30144 0 0 0-0.04096 0.7168V291.84a10.24 10.24 0 0 0 20.40832 1.19808L307.2 291.84v-98.14016l156.60032 156.57984a10.24 10.24 0 0 0 14.47936 0zM727.04 609.28h0.2048c0.23552 0 0.47104-0.02048 0.7168-0.04096L727.04 609.28a10.32192 10.32192 0 0 0 6.31808-2.18112c0.64512-0.512 1.2288-1.09568 1.7408-1.7408l-0.8192 0.9216a10.32192 10.32192 0 0 0 2.92864-6.0416l0.03072-0.3072 0.03072-0.5632L737.28 599.04v-122.88a10.24 10.24 0 0 0-20.40832-1.19808L716.8 476.16v98.16064L560.19968 417.72032a10.24 10.24 0 0 0-15.32928 13.5168l0.84992 0.96256L702.30016 588.8H604.16a10.24 10.24 0 0 0-10.16832 9.04192L593.92 599.04a10.24 10.24 0 0 0 9.04192 10.16832L604.16 609.28h122.88z"  horiz-adv-x="1024" />

    
    <glyph glyph-name="zaichuangkoudakai" unicode="&#59267;" d="M419.84 650.24a10.24 10.24 0 0 0 16.00512 8.45824l222.6688-151.808L819.2 506.88a10.24 10.24 0 0 0 10.16832-9.04192L829.44 496.64v-389.12a10.24 10.24 0 0 0-9.04192-10.16832L819.2 97.28H327.68a10.24 10.24 0 0 0-10.16832 9.04192L317.44 107.52V410.4192l-2.6112-1.08544-2.83648-1.2288c-36.58752-16.3328-68.096-47.59552-98.28352-100.83328-5.19168-9.15456-19.1488-5.46816-19.1488 5.05856v7.09632c0.17408 65.9456 7.20896 111.1552 32.1536 154.05056 34.2016 58.7776 96.60416 92.4672 192.9216 94.72l0.2048 0.01024z m16.00512-315.65824A10.24 10.24 0 0 0 419.84 343.04v81.89952l-5.92896-0.06144-9.5232-0.17408c-3.09248-0.07168-6.08256-0.16384-8.99072-0.26624l-8.4992-0.39936-8.01792-0.512-7.60832-0.65536c-12.42112-1.19808-23.2448-3.0208-33.35168-5.65248V117.76h471.04V486.4H658.51392zM440.32 630.86592V558.08a10.24 10.24 0 0 0-10.24-10.24c-95.29344 0-154.09152-30.4128-185.6512-84.66432-18.5344-31.82592-26.30656-65.9456-28.60032-111.5648l-0.12288-2.56 3.50208 4.93568c24.64768 34.17088 51.08736 57.05728 80.8448 71.168l3.584 1.6384c26.56256 11.85792 52.10112 16.65024 91.05408 18.11456l9.23648 0.27648 9.74848 0.17408 10.31168 0.07168 6.08256 0.01024A10.24 10.24 0 0 0 440.32 435.2v-72.77568L637.17376 496.64 440.32 630.86592z"  horiz-adv-x="1024" />

    
    <glyph glyph-name="suojinyou" unicode="&#59268;" d="M778.24 250.88a10.24 10.24 0 0 0 1.19808-20.40832L778.24 230.4H491.52a10.24 10.24 0 0 0-1.19808 20.40832L491.52 250.88h286.72zM251.392 515.4304l1.024-0.77824 143.36-122.81856a10.24 10.24 0 0 0 0.90112-14.68416l-0.89088-0.86016-143.36-122.94144a10.24 10.24 0 0 0-14.25408 14.6432l0.9216 0.90112 134.28736 115.16928-134.28736 115.0464a10.24 10.24 0 0 0-1.88416 13.4144l0.77824 1.024a10.24 10.24 0 0 0 13.4144 1.88416zM778.24 394.24a10.24 10.24 0 0 0 1.19808-20.40832L778.24 373.76H491.52a10.24 10.24 0 0 0-1.19808 20.40832L491.52 394.24h286.72z m0 143.36a10.24 10.24 0 0 0 1.19808-20.40832L778.24 517.12H491.52a10.24 10.24 0 0 0-1.19808 20.40832L491.52 537.6h286.72z"  horiz-adv-x="1024" />

    
    <glyph glyph-name="chilun3" unicode="&#59269;" d="M549.29408 701.44a28.85632 28.85632 0 0 0 27.93472-21.85216l17.00864-67.96288 0.69632-0.27648a245.28896 245.28896 0 0 0 53.16608-30.03392l0.68608-0.52224 66.52928 19.05664a28.85632 28.85632 0 0 0 31.9488-11.71456l0.98304-1.59744 50.62656-87.68512a28.85632 28.85632 0 0 0-4.93568-35.1744l-48.59904-46.97088 0.82944-6.93248a247.42912 247.42912 0 0 0-0.74752-57.9584l-0.08192-0.52224 48.55808-47.03232a28.85632 28.85632 0 0 0 5.86752-33.4336l-0.93184-1.7408-50.62656-87.68512a28.85632 28.85632 0 0 0-32.93184-13.312l-66.52928 19.06688-0.68608-0.53248a245.2992 245.2992 0 0 0-53.16608-30.04416l-0.68608-0.26624-16.97792-67.8912a28.85632 28.85632 0 0 0-26.1632-21.8112L549.2736 66.56h-101.25312a28.86656 28.86656 0 0 0-27.98592 21.83168l-17.70496 70.8096-0.9216 0.39936a245.4528 245.4528 0 0 0-47.7184 28.28288l-0.68608 0.53248-71.02464-20.2752a28.85632 28.85632 0 0 0-31.9488 11.7248l-0.98304 1.59744-50.62656 87.68512a28.85632 28.85632 0 0 0 4.93568 35.1744l54.20032 52.3776-0.14336 1.26976a240.73216 240.73216 0 0 0 0 52.0192l0.14336 1.29024-54.20032 52.39808a28.85632 28.85632 0 0 0-5.85728 33.45408l0.9216 1.7408 50.6368 87.72608a28.85632 28.85632 0 0 0 32.93184 13.312l71.02464-20.30592 0.68608 0.512a245.504 245.504 0 0 0 47.70816 28.2624l0.91136 0.39936 17.70496 70.8096a28.85632 28.85632 0 0 0 26.20416 21.80096l1.792 0.0512z m-0.02048-20.48h-101.25312a8.37632 8.37632 0 0 1-8.13056-6.3488l-18.92352-75.70432a10.24 10.24 0 0 0-5.98016-6.9632 225.024 225.024 0 0 1-53.41184-31.63136 10.24 10.24 0 0 0-9.19552-1.8432l-76.02176 21.76a8.37632 8.37632 0 0 1-9.56416-3.87072l-50.6368-87.73632a8.37632 8.37632 0 0 1 1.4336-10.21952l57.87648-55.95136a10.24 10.24 0 0 0 3.03104-8.74496 220.25216 220.25216 0 0 1 0-59.4432 10.24 10.24 0 0 0-3.03104-8.74496l-57.87648-55.92064a8.37632 8.37632 0 0 1-1.4336-10.20928l50.62656-87.68512c1.92512-3.328 5.86752-4.92544 9.5744-3.86048l76.032 21.68832a10.24 10.24 0 0 0 9.19552-1.8432 224.9728 224.9728 0 0 1 53.41184-31.66208 10.24 10.24 0 0 0 5.98016-6.9632l18.92352-75.69408a8.37632 8.37632 0 0 1 8.12032-6.32832h101.23264a8.37632 8.37632 0 0 1 8.11008 6.3488l18.24768 72.99072a10.24 10.24 0 0 0 6.27712 7.07584 224.8192 224.8192 0 0 1 58.42944 33.01376 10.24 10.24 0 0 0 9.12384 1.78176l71.4752-20.48a8.37632 8.37632 0 0 1 9.55392 3.87072l50.62656 87.68512a8.37632 8.37632 0 0 1-1.4336 10.21952l-52.3264 50.66752a10.24 10.24 0 0 0-2.99008 8.92928c3.584 23.10144 3.584 46.61248 0 69.71392a10.24 10.24 0 0 0 3.00032 8.93952l52.35712 50.60608a8.37632 8.37632 0 0 1 1.4336 10.20928l-50.62656 87.68512a8.37632 8.37632 0 0 1-9.56416 3.87072l-71.46496-20.48a10.24 10.24 0 0 0-9.12384 1.77152 224.80896 224.80896 0 0 1-58.4192 33.01376 10.24 10.24 0 0 0-6.28736 7.07584L557.3632 674.6112a8.36608 8.36608 0 0 1-8.0896 6.3488zM501.76 527.36c79.17568 0 143.36-64.18432 143.36-143.36s-64.18432-143.36-143.36-143.36-143.36 64.18432-143.36 143.36 64.18432 143.36 143.36 143.36z m0-20.48c-67.86048 0-122.88-55.01952-122.88-122.88s55.01952-122.88 122.88-122.88 122.88 55.01952 122.88 122.88-55.01952 122.88-122.88 122.88z"  horiz-adv-x="1024" />

    
    <glyph glyph-name="bujuliebiao1" unicode="&#59270;" d="M204.8 66.56a10.24 10.24 0 0 0-10.24 10.24V691.2a10.24 10.24 0 0 0 10.24 10.24h614.4a10.24 10.24 0 0 0 10.24-10.24v-614.4a10.24 10.24 0 0 0-10.24-10.24z m194.56 614.4H215.04v-593.92h184.32V680.96z m409.6-409.6H419.84v-184.32h389.12V271.36z m0 20.48V476.16H419.84v-184.32h389.12z m0 204.8V680.96H419.84v-184.32h389.12z"  horiz-adv-x="1024" />

    
    <glyph glyph-name="fenxiang2" unicode="&#59271;" d="M819.2 701.44a10.24 10.24 0 0 0 10.16832-9.04192L829.44 691.2v-614.4a10.24 10.24 0 0 0-9.04192-10.16832L819.2 66.56H491.52a10.24 10.24 0 0 0-1.19808 20.40832L491.52 87.04h317.44V680.96H215.04v-317.44a10.24 10.24 0 0 0-9.04192-10.16832L204.8 353.28a10.24 10.24 0 0 0-10.16832 9.04192L194.56 363.52V691.2a10.24 10.24 0 0 0 9.04192 10.16832L204.8 701.44h614.4zM450.56 332.8l0.768-0.03072 1.29024-0.17408 1.13664-0.3072 1.13664-0.45056 1.00352-0.53248 0.98304-0.68608 0.9216-0.8192c0.36864-0.3584 0.69632-0.74752 0.99328-1.14688l0.72704-1.1264 0.55296-1.16736 0.3584-1.0752 0.3072-1.536L460.8 322.56v-184.32a10.24 10.24 0 0 0-20.40832-1.19808L440.32 138.24V297.84064L212.03968 69.56032a10.24 10.24 0 0 0-15.32928 13.5168l0.84992 0.96256L425.82016 312.32H266.24a10.24 10.24 0 0 0-10.16832 9.04192L256 322.56a10.24 10.24 0 0 0 9.04192 10.16832L266.24 332.8h184.32z"  horiz-adv-x="1024" />

    
    <glyph glyph-name="shuipingjunhengqi1" unicode="&#59272;" d="M819.2 701.44a10.24 10.24 0 0 0 10.24-10.24v-614.4a10.24 10.24 0 0 0-10.24-10.24H204.8a10.24 10.24 0 0 0-10.24 10.24V691.2a10.24 10.24 0 0 0 10.24 10.24z m-10.24-20.48H215.04v-593.92h593.92V680.96zM675.84 281.6a61.44 61.44 0 1 0-60.59008-71.68H327.68a10.24 10.24 0 0 0-1.19808 20.40832L327.68 230.4h287.56992A61.46048 61.46048 0 0 0 675.84 281.6z m0-20.48a40.96 40.96 0 1 1 0-81.92 40.96 40.96 0 0 1 0 81.92zM512 445.44a61.46048 61.46048 0 0 0 60.59008-51.2H696.32a10.24 10.24 0 0 0 1.19808-20.40832L696.32 373.76H572.59008a61.46048 61.46048 0 0 0-121.18016 0H327.68a10.24 10.24 0 0 0-1.19808 20.40832L327.68 394.24h123.72992A61.46048 61.46048 0 0 0 512 445.44z m0-20.48a40.96 40.96 0 1 1 0-81.92 40.96 40.96 0 0 1 0 81.92zM348.16 609.28a61.46048 61.46048 0 0 0 60.59008-51.2H696.32a10.24 10.24 0 0 0 1.19808-20.40832L696.32 537.6H408.75008A61.46048 61.46048 0 0 0 286.72 547.84a61.44 61.44 0 0 0 61.44 61.44z m0-20.48a40.96 40.96 0 1 1 0-81.92 40.96 40.96 0 0 1 0 81.92z"  horiz-adv-x="1024" />

    
    <glyph glyph-name="chexiao3" unicode="&#59273;" d="M819.2 609.28a10.24 10.24 0 0 0 10.16832-9.04192L829.44 599.04v-307.2a10.24 10.24 0 0 0-9.04192-10.16832L819.2 281.6H240.95744l114.0736-105.1136a10.24 10.24 0 0 0 1.41312-13.4656l-0.8192-1.00352a10.24 10.24 0 0 0-13.4656-1.40288l-1.00352 0.8192-133.35552 122.88a10.24 10.24 0 0 0-0.8704 14.14144l0.8704 0.9216 133.35552 122.88a10.24 10.24 0 0 0 14.77632-14.1312l-0.89088-0.93184L240.93696 302.08H808.96V588.8H204.8a10.24 10.24 0 0 0-10.16832 9.04192L194.56 599.04a10.24 10.24 0 0 0 9.04192 10.16832L204.8 609.28h614.4z"  horiz-adv-x="1024" />

    
    <glyph glyph-name="youxiajiantou" unicode="&#59274;" d="M385.15712 525.2096l0.96256-0.84992L634.88 275.6096V455.68a10.24 10.24 0 0 0 9.04192 10.16832L645.12 465.92a10.24 10.24 0 0 0 10.16832-9.04192L655.36 455.68v-204.8a10.24 10.24 0 0 0-6.07232-9.35936c-0.04096 0-0.07168-0.02048-0.1024-0.03072a9.4208 9.4208 0 0 0-2.19136-0.67584c-0.0512 0-0.1024 0-0.16384-0.02048a4.2496 4.2496 0 0 0-0.512-0.08192l-0.512-0.04096h-0.17408L645.12 240.64H440.32a10.24 10.24 0 0 0-1.19808 20.40832L440.32 261.12h180.0704L371.64032 509.88032a10.24 10.24 0 0 0 13.5168 15.32928z"  horiz-adv-x="1024" />

    
    <glyph glyph-name="xiangmufuhaoliebiao" unicode="&#59275;" d="M266.24 230.4a71.68 71.68 0 1 0 0-143.36 71.68 71.68 0 0 0 0 143.36z m552.96-20.60288a10.24 10.24 0 0 0 10.16832-9.04192l0.07168-1.19808v-81.92a10.24 10.24 0 0 0-9.04192-10.16832l-1.19808-0.07168H450.56a10.24 10.24 0 0 0-10.16832 9.04192L440.32 117.63712v81.92a10.24 10.24 0 0 0 9.04192 10.16832l1.19808 0.07168h368.64zM266.24 209.92a51.2 51.2 0 1 1 0-102.4 51.2 51.2 0 0 1 0 102.4z m542.72-20.60288H460.8v-61.44h348.16v61.44zM266.24 455.68a71.68 71.68 0 1 0 0-143.36 71.68 71.68 0 0 0 0 143.36z m552.96-20.48a10.24 10.24 0 0 0 10.16832-9.04192L829.44 424.96v-81.92a10.24 10.24 0 0 0-9.04192-10.16832L819.2 332.8H450.56a10.24 10.24 0 0 0-10.16832 9.04192L440.32 343.04v81.92a10.24 10.24 0 0 0 9.04192 10.16832L450.56 435.2h368.64z m-552.96 0a51.2 51.2 0 1 1 0-102.4 51.2 51.2 0 0 1 0 102.4z m542.72-20.48H460.8v-61.44h348.16v61.44zM266.24 680.96a71.68 71.68 0 1 0 0-143.36 71.68 71.68 0 0 0 0 143.36z m552.96-20.60288a10.24 10.24 0 0 0 10.16832-9.04192l0.07168-1.19808v-81.92a10.24 10.24 0 0 0-9.04192-10.16832l-1.19808-0.07168H450.56a10.24 10.24 0 0 0-10.16832 9.04192L440.32 568.19712v81.92a10.24 10.24 0 0 0 9.04192 10.16832l1.19808 0.07168h368.64zM266.24 660.48a51.2 51.2 0 1 1 0-102.4 51.2 51.2 0 0 1 0 102.4z m542.72-20.60288H460.8v-61.44h348.16v61.44z"  horiz-adv-x="1024" />

    
    <glyph glyph-name="tuichu2" unicode="&#59276;" d="M588.15488 658.69824A10.24 10.24 0 0 0 604.16 650.24v-82.03264l5.33504-0.16384c91.6992-3.24608 151.97184-35.6352 185.92768-91.4432l1.85344-3.1232c24.95488-42.89536 31.98976-88.1152 32.1536-154.0608L829.44 312.32c0-10.51648-13.95712-14.20288-19.1488-5.04832-30.18752 53.23776-61.696 84.50048-98.28352 100.82304-1.81248 0.8192-3.62496 1.5872-5.44768 2.32448V107.52a10.24 10.24 0 0 0-9.04192-10.16832L696.32 97.28H204.8a10.24 10.24 0 0 0-10.16832 9.04192L194.56 107.52V496.64a10.24 10.24 0 0 0 9.04192 10.16832L204.8 506.88h160.67584zM365.4656 486.41024L215.04 486.4v-368.64h471.04l0.01024 299.45856c-12.12416 3.15392-25.27232 5.14048-40.96 6.30784l-8.02816 0.512-8.4992 0.39936a639.0784 639.0784 0 0 1-8.98048 0.26624l-9.5232 0.17408-5.9392 0.06144V343.04a10.24 10.24 0 0 0-15.02208-9.0624l-0.98304 0.60416L365.4656 486.4zM583.68 630.86592L386.816 496.64 583.68 362.42432V435.2a10.24 10.24 0 0 0 9.0624 10.16832L593.92 445.44h6.10304l10.30144-0.08192 9.74848-0.17408 9.22624-0.27648c38.95296-1.46432 64.49152-6.2464 91.04384-18.10432 32.48128-14.49984 61.00992-39.15776 87.51104-77.14816l0.41984-0.60416-0.1024 2.54976c-2.22208 43.9296-9.5232 77.2096-26.59328 108.032l-2.00704 3.54304C748.01152 517.4272 689.21344 547.84 593.92 547.84a10.24 10.24 0 0 0-10.24 10.24v72.78592z"  horiz-adv-x="1024" />

    
    <glyph glyph-name="quanxianshi" unicode="&#59277;" d="M204.8 568.32a10.24 10.24 0 0 0 10.16832-9.04192L215.04 558.08v-348.16a10.24 10.24 0 0 0-20.40832-1.19808L194.56 209.92V558.08a10.24 10.24 0 0 0 10.24 10.24z m614.4 0a10.24 10.24 0 0 0 10.16832-9.04192L829.44 558.08v-348.16a10.24 10.24 0 0 0-20.40832-1.19808L808.96 209.92V558.08a10.24 10.24 0 0 0 10.24 10.24z m-532.48-40.96a10.24 10.24 0 0 0 10.16832-9.04192L296.96 517.12v-266.24a10.24 10.24 0 0 0-20.40832-1.19808L276.48 250.88V517.12a10.24 10.24 0 0 0 10.24 10.24z m450.56 0a10.24 10.24 0 0 0 10.16832-9.04192L747.52 517.12v-266.24a10.24 10.24 0 0 0-20.40832-1.19808L727.04 250.88V517.12a10.24 10.24 0 0 0 10.24 10.24z m-81.92-20.48a10.24 10.24 0 0 0 10.24-10.24v-225.28a10.24 10.24 0 0 0-10.24-10.24H368.64a10.24 10.24 0 0 0-10.24 10.24V496.64a10.24 10.24 0 0 0 10.24 10.24z m-10.24-20.48H378.88v-204.8h266.24V486.4z"  horiz-adv-x="1024" />

    
    <glyph glyph-name="youxiajiantouyuanquan" unicode="&#59278;" d="M512 701.44c175.3088 0 317.44-142.1312 317.44-317.44 0-175.3088-142.1312-317.44-317.44-317.44-175.3088 0-317.44 142.1312-317.44 317.44 0 175.3088 142.1312 317.44 317.44 317.44z m0-20.48c-164.00384 0-296.96-132.95616-296.96-296.96s132.95616-296.96 296.96-296.96 296.96 132.95616 296.96 296.96-132.95616 296.96-296.96 296.96zM384.11264 525.9264l1.04448-0.7168 0.96256-0.84992L624.64 285.8496V445.44a10.24 10.24 0 0 0 9.04192 10.16832L634.88 455.68a10.24 10.24 0 0 0 10.16832-9.04192L645.12 445.44l-0.03072-185.088-0.17408-1.29024-0.3072-1.13664-0.45056-1.13664-0.53248-1.00352-0.68608-0.98304-0.8192-0.9216a10.3424 10.3424 0 0 0-1.14688-0.99328l-1.1264-0.72704-1.16736-0.55296-1.0752-0.3584-1.536-0.3072L634.88 250.88H450.56a10.24 10.24 0 0 0-1.19808 20.40832L450.56 271.36h159.5904L371.64032 509.88032a10.24 10.24 0 0 0 12.47232 16.04608z"  horiz-adv-x="1024" />

    
    <glyph glyph-name="zuoxiajiantouyuanquan" unicode="&#59279;" d="M512 701.44c175.3088 0 317.44-142.1312 317.44-317.44 0-175.3088-142.1312-317.44-317.44-317.44-175.3088 0-317.44 142.1312-317.44 317.44 0 175.3088 142.1312 317.44 317.44 317.44z m0-20.48c-164.00384 0-296.96-132.95616-296.96-296.96s132.95616-296.96 296.96-296.96 296.96 132.95616 296.96 296.96-132.95616 296.96-296.96 296.96z m140.35968-156.60032a10.24 10.24 0 0 0 0.84992-13.5168l-0.84992-0.96256L413.83936 271.36H573.44a10.24 10.24 0 0 0 10.16832-9.04192L583.68 261.12a10.24 10.24 0 0 0-9.04192-10.16832L573.44 250.88l-185.088 0.03072-1.29024 0.17408-1.13664 0.3072-1.13664 0.45056-1.00352 0.53248-0.98304 0.68608-0.9216 0.8192a10.3424 10.3424 0 0 0-0.99328 1.14688l-0.72704 1.1264-0.55296 1.16736-0.3584 1.0752-0.3072 1.536L378.88 261.12V445.44a10.24 10.24 0 0 0 20.40832 1.19808L399.36 445.44v-159.58016l238.52032 238.49984a10.24 10.24 0 0 0 14.47936 0z"  horiz-adv-x="1024" />

    
    <glyph glyph-name="xiangshangyuanquan" unicode="&#59280;" d="M512 701.44c175.3088 0 317.44-142.1312 317.44-317.44 0-175.3088-142.1312-317.44-317.44-317.44-175.3088 0-317.44 142.1312-317.44 317.44 0 175.3088 142.1312 317.44 317.44 317.44z m0-20.48c-164.00384 0-296.96-132.95616-296.96-296.96s132.95616-296.96 296.96-296.96 296.96 132.95616 296.96 296.96-132.95616 296.96-296.96 296.96z m7.00416-197.28384l0.86016-0.90112 112.57856-133.12a10.24 10.24 0 0 0-14.7456-14.15168l-0.90112 0.9216-104.7552 123.88352-104.88832-123.88352a10.24 10.24 0 0 0-13.39392-1.96608l-1.03424 0.768a10.24 10.24 0 0 0-1.96608 13.39392l0.768 1.03424 112.70144 133.12a10.24 10.24 0 0 0 14.77632 0.90112z"  horiz-adv-x="1024" />

    
    <glyph glyph-name="xuanzhongfangxing" unicode="&#59281;" d="M819.2 701.44a10.24 10.24 0 0 0 10.24-10.24v-614.4a10.24 10.24 0 0 0-10.24-10.24H204.8a10.24 10.24 0 0 0-10.24 10.24V691.2a10.24 10.24 0 0 0 10.24 10.24z m-10.24-20.48H215.04v-593.92h593.92V680.96zM662.15936 467.57888a10.24 10.24 0 0 0 0.84992-13.5168l-0.84992-0.96256-163.50208-163.4816a10.24 10.24 0 0 0-13.5168-0.84992l-0.96256 0.84992-92.07808 92.07808a10.24 10.24 0 0 0 13.5168 15.32928l0.96256-0.84992 84.8384-84.82816 156.2624 156.23168a10.24 10.24 0 0 0 14.47936 0z"  horiz-adv-x="1024" />

    
    <glyph glyph-name="zuoxiajiantou" unicode="&#59282;" d="M652.35968 524.35968a10.24 10.24 0 0 0 0.84992-13.5168l-0.84992-0.96256L403.59936 261.12H583.68a10.24 10.24 0 0 0 10.16832-9.04192L593.92 250.88a10.24 10.24 0 0 0-9.04192-10.16832L583.68 240.64H378.88l-0.512 0.02048-0.17408 0.01024L378.88 240.64c-0.58368 0-1.15712 0.0512-1.72032 0.14336l-0.1536 0.04096a9.46176 9.46176 0 0 0-2.18112 0.65536l-0.11264 0.06144a10.20928 10.20928 0 0 0-6.00064 8.1408l-0.03072 0.45056-0.02048 0.34816L368.64 250.88V455.68a10.24 10.24 0 0 0 20.40832 1.19808L389.12 455.68v-180.06016l248.76032 248.73984a10.24 10.24 0 0 0 14.47936 0z"  horiz-adv-x="1024" />

    
    <glyph glyph-name="fangzi1" unicode="&#59283;" d="M286.72 76.8a10.24 10.24 0 0 0-10.16832 9.04192L276.48 87.04V395.5712l-20.64384-16.6912a15.36 15.36 0 0 0-18.13504-0.8704l-1.2288 0.91136-1.15712 1.04448-33.55648 33.55648a15.43168 15.43168 0 0 0-4.63872 11.79648c0.2048 3.82976 1.82272 7.43424 4.52608 10.11712l1.2288 1.09568 302.72512 242.176a10.24 10.24 0 0 0 11.74528 0.74752l1.05472-0.73728 116.46976-93.20448L634.88 640a10.24 10.24 0 0 0 9.04192 10.16832L645.12 650.24h92.16a10.24 10.24 0 0 0 10.16832-9.04192L747.52 640v-144.61952l73.61536-58.90048a15.36 15.36 0 0 0 2.3552-21.64736l-1.09568-1.21856-33.65888-33.60768a15.36 15.36 0 0 0-19.2512-1.9968l-1.25952 0.9216-20.71552 16.72192L747.52 87.04a10.24 10.24 0 0 0-9.04192-10.16832L737.28 76.8H286.72z m225.28 509.0816L296.96 412.11904V97.28h122.88V291.84a10.24 10.24 0 0 0 9.04192 10.16832L430.08 302.08h163.84a10.24 10.24 0 0 0 10.16832-9.04192L604.16 291.84v-194.56h122.88V412.20096L512 585.8816zM583.68 281.6H440.32v-184.32h143.36V281.6z m-71.68 204.8a61.44 61.44 0 1 0 0-122.88 61.44 61.44 0 0 0 0 122.88z m0-20.48a40.96 40.96 0 1 1 0-81.92 40.96 40.96 0 0 1 0 81.92z m-0.01024 191.6928L220.12928 424.12032l26.40896-26.4192 259.03104 209.3056a10.24 10.24 0 0 0 10.5472 1.41312l1.25952-0.6656 1.05472-0.74752L743.56736 425.1648l0.24576-0.19456 33.69984-27.21792 26.35776 26.3168-162.9184 130.34496a10.28096 10.28096 0 0 0-4.03456 3.21536L512 657.6128zM727.04 629.76h-71.68v-60.63104l71.68-57.35424V629.76z"  horiz-adv-x="1024" />

    
    <glyph glyph-name="chilun4" unicode="&#59284;" d="M531.53792 701.44A41.96352 41.96352 0 0 0 573.44 659.61984c0.09216-9.6256 6.49216-18.06336 15.88224-20.76672a264.81664 264.81664 0 0 0 48.26112-20.03968 21.80096 21.80096 0 0 1 25.8048 3.46112 41.984 41.984 0 0 0 59.2896-0.02048l27.57632-27.62752a41.96352 41.96352 0 0 0 0.06144-59.21792c-6.76864-6.88128-8.192-17.408-3.46112-25.97888a264.8064 264.8064 0 0 0 20.0192-48.26112A21.76 21.76 0 0 1 787.53792 445.44 41.984 41.984 0 0 0 829.44 403.51744v-39.05536A41.96352 41.96352 0 0 0 787.61984 322.56c-9.6256-0.1024-18.04288-6.49216-20.74624-15.872a264.8064 264.8064 0 0 0-20.03968-48.25088 21.80096 21.80096 0 0 1 3.46112-25.8048 41.984 41.984 0 0 0-0.02048-59.2896l-27.648-27.5968a41.96352 41.96352 0 0 0-59.21792-0.06144c-6.88128 6.76864-17.408 8.192-25.97888 3.46112a264.8064 264.8064 0 0 0-48.26112-20.0192A21.76 21.76 0 0 1 573.44 108.46208 41.984 41.984 0 0 0 531.5072 66.56h-39.04512A41.96352 41.96352 0 0 0 450.56 108.3904a21.8112 21.8112 0 0 1-15.81056 20.736 264.81664 264.81664 0 0 0-48.26112 20.03968 21.80096 21.80096 0 0 1-25.8048-3.46112 41.984 41.984 0 0 0-59.2896 0l-27.648 27.66848a41.96352 41.96352 0 0 0-0.06144 59.21792c6.76864 6.88128 8.192 17.408 3.46112 25.97888a264.8064 264.8064 0 0 0-20.0192 48.26112A21.76 21.76 0 0 1 236.46208 322.56 41.984 41.984 0 0 0 194.56 364.4928v39.04512A41.97376 41.97376 0 0 0 236.40064 445.44a21.8112 21.8112 0 0 1 20.7872 15.81056 264.81664 264.81664 0 0 0 20.02944 48.26112 21.80096 21.80096 0 0 1-3.46112 25.8048 41.984 41.984 0 0 0 0 59.26912l27.61728 27.66848a41.96352 41.96352 0 0 0 59.21792 0.06144c6.88128-6.76864 17.408-8.192 25.97888-3.46112a264.8064 264.8064 0 0 0 48.26112 20.0192A21.76 21.76 0 0 1 450.56 659.53792 41.984 41.984 0 0 0 492.46208 701.44z m-0.02048-20.48h-39.0144A21.51424 21.51424 0 0 1 471.04 659.42528l-0.07168-2.14016a42.20928 42.20928 0 0 0-30.3104-38.05184l-5.74464-1.82272c-13.34272-4.4032-26.2656-9.95328-38.5536-16.5376l-1.97632-1.024a42.33216 42.33216 0 0 0-48.19968 7.90528l-1.29024 1.18784a21.504 21.504 0 0 1-29.04064-1.16736l-27.5968-27.648a21.52448 21.52448 0 0 1 0.06144-30.4128l1.51552-1.6384a42.25024 42.25024 0 0 0 5.36576-48.35328l-2.77504-5.34528a243.64032 243.64032 0 0 1-15.616-38.95296l-0.64512-2.048A42.2912 42.2912 0 0 0 236.50304 424.96l-1.536-0.06144A21.504 21.504 0 0 1 215.04 403.51744v-39.0144A21.51424 21.51424 0 0 1 236.57472 343.04l2.14016-0.07168a42.20928 42.20928 0 0 0 38.05184-30.3104l1.82272-5.74464c4.4032-13.34272 9.95328-26.2656 16.5376-38.5536l1.024-1.97632a42.33216 42.33216 0 0 0-7.90528-48.19968l-1.18784-1.29024a21.504 21.504 0 0 1 1.1776-29.05088l27.63776-27.63776c8.3968-8.35584 21.9648-8.35584 30.4128 0.06144l1.6384 1.51552a42.25024 42.25024 0 0 0 48.35328 5.36576l5.34528-2.77504c12.544-6.32832 25.6-11.56096 38.95296-15.616l2.048-0.64512A42.2912 42.2912 0 0 0 471.04 108.50304l0.06144-1.536A21.504 21.504 0 0 1 492.48256 87.04h39.0144A21.51424 21.51424 0 0 1 552.96 108.57472l0.07168 2.14016a42.20928 42.20928 0 0 0 30.3104 38.05184l5.74464 1.82272a243.57888 243.57888 0 0 1 38.5536 16.5376l1.97632 1.024a42.33216 42.33216 0 0 0 48.19968-7.90528l1.29024-1.18784a21.504 21.504 0 0 1 29.06112 1.18784l27.62752 27.57632a21.52448 21.52448 0 0 1-0.06144 30.4128l-1.51552 1.6384a42.25024 42.25024 0 0 0-5.36576 48.35328l2.77504 5.34528a243.57888 243.57888 0 0 1 15.60576 38.94272l0.64512 2.048A42.2912 42.2912 0 0 0 787.5072 343.04l1.52576 0.06144A21.504 21.504 0 0 1 808.96 364.48256v39.0144A21.51424 21.51424 0 0 1 787.42528 424.96l-2.14016 0.07168a42.20928 42.20928 0 0 0-38.05184 30.3104l-1.82272 5.74464a243.57888 243.57888 0 0 1-16.5376 38.5536l-1.024 1.97632a42.33216 42.33216 0 0 0 7.90528 48.19968l1.18784 1.29024a21.504 21.504 0 0 1-1.18784 29.06112l-27.5456 27.60704a21.52448 21.52448 0 0 1-30.4128-0.06144l-1.6384-1.51552a42.25024 42.25024 0 0 0-48.36352-5.36576l-5.34528 2.77504a243.56864 243.56864 0 0 1-38.93248 15.60576l-2.048 0.64512A42.2912 42.2912 0 0 0 552.96 659.49696l-0.06144 1.536A21.504 21.504 0 0 1 531.51744 680.96zM512 537.6c84.82816 0 153.6-68.77184 153.6-153.6 0-84.82816-68.77184-153.6-153.6-153.6-84.82816 0-153.6 68.77184-153.6 153.6 0 84.82816 68.77184 153.6 153.6 153.6z m0-20.48c-73.5232 0-133.12-59.5968-133.12-133.12s59.5968-133.12 133.12-133.12 133.12 59.5968 133.12 133.12-59.5968 133.12-133.12 133.12z"  horiz-adv-x="1024" />

    
    <glyph glyph-name="xinxiaoxi" unicode="&#59285;" d="M716.8 701.44c62.208 0 112.64-50.432 112.64-112.64 0-58.90048-45.21984-107.25376-102.83008-112.22016 0.17408-2.048 0.28672-4.11648 0.3584-6.1952L727.04 465.92v-266.24c0-72.46848-57.9072-131.40992-129.97632-133.07904L593.92 66.56H327.68c-72.46848 0-131.40992 57.9072-133.07904 129.97632L194.56 199.68V465.92c0 72.46848 57.9072 131.40992 129.97632 133.07904L327.68 599.04h266.24c3.56352 0 7.12704-0.14336 10.68032-0.41984C609.54624 656.22016 657.89952 701.44 716.8 701.44zM593.92 578.56H327.68c-61.22496 0-111.03232-48.8448-112.59904-109.69088L215.04 465.92v-266.24c0-61.22496 48.8448-111.03232 109.69088-112.59904L327.68 87.04h266.24c61.22496 0 111.03232 48.8448 112.59904 109.69088L706.56 199.68V465.92c0 3.60448-0.17408 7.18848-0.512 10.752a112.65024 112.65024 0 0 0-101.376 101.35552 94.57664 94.57664 0 0 1-6.03136 0.43008L593.92 578.56z m122.88 102.4a92.16 92.16 0 1 1 0-184.32 92.16 92.16 0 0 1 0 184.32z"  horiz-adv-x="1024" />

    
    <glyph glyph-name="xiangxia" unicode="&#59286;" d="M627.0976 462.34624a10.24 10.24 0 0 0 16.3328-12.30848l-0.77824-1.024-122.94144-143.36a10.24 10.24 0 0 0-14.6944-0.89088l-0.84992 0.89088-122.81856 143.36a10.24 10.24 0 0 0 14.6432 14.25408l0.90112-0.9216 115.0464-134.28736 115.16928 134.28736z"  horiz-adv-x="1024" />

    
    <glyph glyph-name="daoru" unicode="&#59287;" d="M819.2 660.48a10.24 10.24 0 0 0 10.16832-9.04192L829.44 650.24v-532.48a10.24 10.24 0 0 0-9.04192-10.16832L819.2 107.52H491.24352a10.24 10.24 0 0 0-10.16832 9.04192L481.00352 117.76V281.58976a10.24 10.24 0 0 0 20.40832 1.19808l0.07168-1.19808V128H808.96V640H501.48352v-153.6a10.24 10.24 0 0 0-9.04192-10.16832l-1.19808-0.07168a10.24 10.24 0 0 0-10.16832 9.04192L481.00352 486.4V650.24a10.24 10.24 0 0 0 9.04192 10.16832l1.19808 0.07168H819.2zM577.71008 505.856l1.09568-0.62464 1.024-0.768 133.24288-112.60928 0.54272-0.512 0.75776-0.8192 0.53248-0.69632 0.62464-1.04448 0.36864-0.77824 0.38912-1.08544 0.256-1.1264 0.11264-0.88064 0.04096-0.88064-0.03072-0.768-0.16384-1.20832-0.29696-1.15712-0.4096-1.09568-0.53248-1.00352-0.64512-0.95232-0.64512-0.768-0.4096-0.4096-0.49152-0.4608-133.23264-112.67072a10.24 10.24 0 0 0-14.15168 14.7456l0.9216 0.90112 111.88224 94.6176L204.8 373.76a10.24 10.24 0 0 0-1.19808 20.40832L204.8 394.24l473.68192 0.03072-111.872 94.54592a10.24 10.24 0 0 0-1.97632 13.40416l0.768 1.024a10.24 10.24 0 0 0 12.30848 2.60096z"  horiz-adv-x="1024" />

    
    <glyph glyph-name="jinggao" unicode="&#59288;" d="M639.26272 701.44a10.24 10.24 0 0 0 7.23968-3.00032l179.93728-179.94752a10.24 10.24 0 0 0 3.00032-7.23968v-254.49472a10.24 10.24 0 0 0-3.00032-7.23968L646.5024 69.56032a10.24 10.24 0 0 0-7.23968-3.00032H384.75776a10.24 10.24 0 0 0-7.23968 3.00032L197.56032 249.51808a10.24 10.24 0 0 0-3.00032 7.23968V511.25248a10.24 10.24 0 0 0 3.00032 7.23968l179.95776 179.94752a10.24 10.24 0 0 0 7.23968 3.00032z m-4.2496-20.48H388.99712L215.04 507.01312v-246.00576L389.00736 87.04h245.99552L808.96 261.0176V507.00288L635.01312 680.96zM512 281.6a30.72 30.72 0 1 0 0-61.44 30.72 30.72 0 0 0 0 61.44z m0-20.48a10.24 10.24 0 1 1 0-20.48 10.24 10.24 0 0 1 0 20.48z m0 327.68a10.24 10.24 0 0 0 10.16832-9.04192L522.24 578.56v-245.76a10.24 10.24 0 0 0-20.40832-1.19808L501.76 332.8V578.56a10.24 10.24 0 0 0 10.24 10.24z"  horiz-adv-x="1024" />

    
    <glyph glyph-name="xunhuan3" unicode="&#59289;" d="M605.04064 578.56l132.54656-0.03072a94.73024 94.73024 0 0 0 91.81184-91.9552l0.04096-2.73408v-97.28a94.72 94.72 0 0 0-91.97568-94.67904L734.72 291.84H506.01984l84.8896-84.80768a10.24 10.24 0 0 0 0.8704-13.5168l-0.86016-0.96256a10.24 10.24 0 0 0-13.5168-0.86016l-0.96256 0.86016-102.31808 102.1952A10.28096 10.28096 0 0 0 471.04 302.08v0.2048c0 0.23552 0.02048 0.47104 0.04096 0.70656L471.04 302.08a10.32192 10.32192 0 0 0 2.1504 6.26688c0.3072 0.4096 0.6144 0.74752 0.93184 1.06496l102.31808 102.42048a10.24 10.24 0 0 0 15.33952-13.5168l-0.86016-0.96256L505.9584 312.32h228.7616a74.24 74.24 0 0 1 74.19904 71.7824l0.04096 2.4576v97.28c0 39.29088-30.5664 71.61856-69.20192 74.09664L737.28 558.04928 289.28 558.08a74.24 74.24 0 0 1-74.19904-71.7824l-0.04096-2.4576v-97.28c0-39.28064 30.55616-71.60832 69.18144-74.0864l2.47808-0.11264H368.64a10.24 10.24 0 0 0 1.19808-20.40832l-1.19808-0.07168h-82.25792a94.72 94.72 0 0 0-91.78112 91.9552L194.56 386.56v97.28a94.72 94.72 0 0 0 91.97568 94.67904L289.28 578.56h315.76064z"  horiz-adv-x="1024" />

    
    <glyph glyph-name="xunhuan6" unicode="&#59290;" d="M446.59712 576.4096l0.96256-0.84992 102.4-102.2976c1.67936-1.6896 2.6624-3.81952 2.92864-6.01088 0-0.08192 0-0.17408 0.02048-0.256a6.93248 6.93248 0 0 0 0.0512-0.74752v-0.67584l-0.03072-0.32768L552.96 465.92c0-3.24608-1.50528-6.144-3.86048-8.01792l-101.53984-101.62176a10.24 10.24 0 0 0-15.33952 13.5168l0.86016 0.96256L517.90848 455.68H215.04v-245.76h593.92V455.68H655.36a10.24 10.24 0 0 0-10.16832 9.04192L645.12 465.92a10.24 10.24 0 0 0 9.04192 10.16832L655.36 476.16h163.84a10.24 10.24 0 0 0 10.16832-9.04192L829.44 465.92v-266.24a10.24 10.24 0 0 0-9.04192-10.16832L819.2 189.44H204.8a10.24 10.24 0 0 0-10.16832 9.04192L194.56 199.68V465.92a10.24 10.24 0 0 0 9.04192 10.16832L204.8 476.16h313.27232l-84.992 84.92032a10.24 10.24 0 0 0-0.86016 13.5168l0.86016 0.96256a10.24 10.24 0 0 0 13.5168 0.86016z"  horiz-adv-x="1024" />

    
    <glyph glyph-name="cebianlanneirong" unicode="&#59291;" d="M327.68 701.44a10.24 10.24 0 0 0 10.24-10.24v-614.4a10.24 10.24 0 0 0-10.24-10.24H204.8a10.24 10.24 0 0 0-10.24 10.24V691.2a10.24 10.24 0 0 0 10.24 10.24z m491.52-491.52a10.24 10.24 0 0 0 10.16832-9.04192L829.44 199.68v-122.88a10.24 10.24 0 0 0-9.04192-10.16832L819.2 66.56H450.56a10.24 10.24 0 0 0-10.16832 9.04192L440.32 76.8V199.68a10.24 10.24 0 0 0 9.04192 10.16832L450.56 209.92h368.64zM317.44 680.96H215.04v-593.92h102.4V680.96z m491.52-491.52H460.8v-102.4h348.16V189.44z m10.24 266.36288a10.24 10.24 0 0 0 10.16832-9.04192l0.07168-1.19808v-122.88a10.24 10.24 0 0 0-9.04192-10.16832l-1.19808-0.07168H450.56a10.24 10.24 0 0 0-10.16832 9.04192L440.32 322.68288v122.88a10.24 10.24 0 0 0 9.04192 10.16832l1.19808 0.07168h368.64z m-10.24-20.48H460.8v-102.4h348.16v102.4zM819.2 701.44a10.24 10.24 0 0 0 10.16832-9.04192L829.44 691.2v-122.88a10.24 10.24 0 0 0-9.04192-10.16832L819.2 558.08H450.56a10.24 10.24 0 0 0-10.16832 9.04192L440.32 568.32V691.2a10.24 10.24 0 0 0 9.04192 10.16832L450.56 701.44h368.64z m-10.24-20.48H460.8v-102.4h348.16V680.96z"  horiz-adv-x="1024" />

    
    <glyph glyph-name="zuixiaohuachuangkou" unicode="&#59292;" d="M768 650.24a10.24 10.24 0 0 0 10.24-10.24v-512a10.24 10.24 0 0 0-10.24-10.24H256a10.24 10.24 0 0 0-10.24 10.24V640a10.24 10.24 0 0 0 10.24 10.24z m-10.24-20.48H266.24v-491.52h491.52V629.76zM645.12 240.64a10.24 10.24 0 0 0 1.19808-20.40832L645.12 220.16H378.88a10.24 10.24 0 0 0-1.19808 20.40832L378.88 240.64h266.24z"  horiz-adv-x="1024" />

    
    <glyph glyph-name="jiaodian" unicode="&#59293;" d="M204.8 281.6a10.24 10.24 0 0 0 10.16832-9.04192L215.04 271.36v-184.32h184.32a10.24 10.24 0 0 0 10.16832-9.04192L409.6 76.8a10.24 10.24 0 0 0-9.04192-10.16832L399.36 66.56H204.8a10.24 10.24 0 0 0-10.16832 9.04192L194.56 76.8V271.36a10.24 10.24 0 0 0 10.24 10.24z m614.4 0a10.24 10.24 0 0 0 10.16832-9.04192L829.44 271.36v-194.56a10.24 10.24 0 0 0-9.04192-10.16832L819.2 66.56H624.64a10.24 10.24 0 0 0-1.19808 20.40832L624.64 87.04h184.32V271.36a10.24 10.24 0 0 0 9.04192 10.16832L819.2 281.6zM706.56 588.8a10.24 10.24 0 0 0 10.24-10.24v-389.12a10.24 10.24 0 0 0-10.24-10.24H317.44a10.24 10.24 0 0 0-10.24 10.24V578.56a10.24 10.24 0 0 0 10.24 10.24z m-10.24-20.48H327.68v-368.64h368.64V568.32z m122.88 133.12a10.24 10.24 0 0 0 10.16832-9.04192L829.44 691.2v-194.56a10.24 10.24 0 0 0-20.40832-1.19808L808.96 496.64V680.96H624.64a10.24 10.24 0 0 0-10.16832 9.04192L614.4 691.2a10.24 10.24 0 0 0 9.04192 10.16832L624.64 701.44h194.56z m-419.84 0a10.24 10.24 0 0 0 1.19808-20.40832L399.36 680.96H215.04v-184.32a10.24 10.24 0 0 0-9.04192-10.16832L204.8 486.4a10.24 10.24 0 0 0-10.16832 9.04192L194.56 496.64V691.2a10.24 10.24 0 0 0 9.04192 10.16832L204.8 701.44h194.56z"  horiz-adv-x="1024" />

    
    </font>
</defs>
</svg>
